<?xml version="1.0" encoding="utf-8"?>
<!-- Generator: Adobe Illustrator 25.0.0, SVG Export Plug-In . SVG Version: 6.00 Build 0)  -->
<svg width="305px" version="1.1" id="Calque_1" xmlns="http://www.w3.org/2000/svg" xmlns:xlink="http://www.w3.org/1999/xlink" x="0px" y="0px"
	 viewBox="0 0 620.16 143" style="enable-background:new 0 0 620.16 143;" xml:space="preserve">
<style type="text/css">
	.st0{fill:#ED152B;}
</style>
<g>
	<path class="st0" d="M0,43.25h41.3l-0.08,11.51h-26.8v12.3h24.75v11.51H14.42V98.5H0V43.25z"/>
	<path class="st0" d="M78.8,41.81c-15.95,0-28.87,12.93-28.87,28.87c0,15.95,12.93,28.87,28.87,28.87s28.87-12.93,28.87-28.87
		C107.67,54.73,94.74,41.81,78.8,41.81z M78.8,86.23c-8.59,0-15.55-6.96-15.55-15.55s6.96-15.55,15.55-15.55s15.55,6.96,15.55,15.55
		S87.38,86.23,78.8,86.23z"/>
	<path class="st0" d="M151.21,98.5l-8.04-15.29h-0.31h-10.4V98.5h-14.42V43.25h24.83c7.3,0,12.96,1.69,16.99,5.08
		c4.02,3.39,6.03,8.16,6.03,14.31c0,4.15-0.84,7.74-2.52,10.76c-1.68,3.02-4.12,5.37-7.33,7.05l11.51,18.05H151.21z M132.45,71.7
		h10.48c2.94,0,5.22-0.74,6.82-2.21c1.6-1.47,2.4-3.6,2.4-6.38c0-2.68-0.8-4.74-2.4-6.19c-1.6-1.44-3.88-2.17-6.82-2.17h-10.48V71.7
		z"/>
	<path class="st0" d="M176.64,43.25h15.69l16,32.32l15.92-32.32h15.69V98.5h-12.77l-0.08-35l-14.11,29.48h-9.3l-14.19-29.48v35
		h-12.85V43.25z"/>
	<path class="st0" d="M292.79,98.5l-3.78-9.77h-23.88l-3.86,9.77h-14.82l23.72-55.25h14.82l23.17,55.25H292.79z M269.46,77.69h15.29
		l-7.57-19.7L269.46,77.69z"/>
</g>
<g>
	<polygon class="st0" points="620.16,61 542.33,46.7 542.33,54.24 525.77,54.24 525.77,89.14 	"/>
	<path class="st0" d="M511.35,54.24h-16.39v-11.9h23.63L288.16,0l25.28,63.42V42.34h12.69l25.14,33.26l-0.08-33.26h13.4v55.25
		h-12.61l-25.06-33.02v32.67L345.16,143l166.19-49.55V54.24z M424.1,97.59h-44.37V42.34h43.59v11.51h-29.16v10.33h26.33V75.6
		l-26.33,0.08v10.4h29.95V97.59z M472.34,97.59l-11.74-17.1l-11.51,17.1h-16.87l19.63-28.14l-18.36-27.11h16.79l10.33,15.69
		L471,42.34h17.02l-18.21,26.4l19.78,28.85H472.34z"/>
</g>
</svg>
