

<svg version="1.1"  xmlns="http://www.w3.org/2000/svg" xmlns:xlink="http://www.w3.org/1999/xlink" x="0px" y="0px"
	 viewBox="0 0 180 80" style="enable-background:new 0 0 180 80;" xml:space="preserve">
<style type="text/css">
	.st0{fill:#3770B7;}
	.st1{fill:#6A6A6A;}
	.st2{fill:#070809;}
	.st3{fill:#121314;}
	.st4{fill:#686868;}
	.st5{fill:#F6CB00;}
</style>
<g id="V9vtha.tif">
	<g>
		<path class="st0" d="M128.8,6.5c0.9,0.4,1.7,0.3,2.6,0.5c10.6,2.1,17.9,9.7,19.4,20.3c1,6.5,0.3,12.8-3.1,18.5
			c-3.6,6.2-9.2,9.9-16.1,11.5c-0.2,0-0.3,0.1-0.6,0.2c1.7,1.6,3.6,2.6,5.8,3.1c2.5,0.5,4.9,0.3,7.3-0.4c0.9-0.3,1.1-0.1,1.3,0.7
			c0.5,1.8,1.1,3.6,1.7,5.4c0.3,0.7,0.1,1-0.6,1.2c-8.3,2.9-16,2.2-22.8-3.6c-2.1-1.7-3.8-3.8-5.4-6c-0.3-0.5-0.8-0.9-1.4-1
			c-9.9-3.2-15.3-10.2-16.8-20.3c-1-7.2,0.3-13.9,4.6-19.9c4-5.5,9.4-8.6,16.1-9.8c0.5-0.1,1,0,1.5-0.3
			C124.6,6.5,126.7,6.5,128.8,6.5z M140.5,32.4c0-2.9-0.4-5.7-1.5-8.3c-2.7-6.5-8.4-9.4-15-8.7c-6.4,0.7-10.7,4.5-12.5,10.6
			c-0.9,3.2-1,6.4-0.7,9.7c0.9,7.2,5.3,13.1,13.5,13.7c5.4,0.4,11-1.7,13.9-7.1C139.9,39.1,140.5,35.9,140.5,32.4z M108.4,38.2
			c-1.3,0.1-2.1-0.4-2.5-1.7c-0.3,1.2-1.1,1.8-2.4,1.8c1.2,0.7,1.3,1.7,1,2.9c1-0.9,2-0.8,3,0C106.9,39.8,107.3,39,108.4,38.2z
			 M144.9,35.6c-0.3,1.3-1,1.8-2.3,1.8c1.1,0.8,1.4,1.6,1,2.9c1-0.9,2-0.8,3.1,0c-0.6-1.3-0.1-2.1,1-2.9
			C145.9,37.1,145.9,37.1,144.9,35.6z M124.8,8.1c-0.3,1.6-1,2.1-2.6,2c1.2,0.9,1.6,1.7,1.2,2.9c1-0.9,2-0.7,3,0
			c-0.7-1.3,0-2.1,0.9-2.9C125.8,10.4,125.3,9.5,124.8,8.1z"/>
		<path class="st1" d="M27.8,20.7c0.6-0.9,1.2-1.6,2.3-1.8c1.6-0.3,2.9,0.6,3.3,2.1c0.4,1.6-0.3,3.1-1.7,3.7c-0.3,0.1-0.5,0-0.7,0.3
			c0.3,0.5,1,0.5,1.5,0.5c0.3,0,0.5,0,0.5,0.3s-0.3,0.3-0.5,0.3c-0.6,0.1-1.3,0.1-1.7-0.3c-1-1-2.4-1.4-3.1-2.7
			C27.8,22.3,27.8,21.5,27.8,20.7z M28.6,21.9c0,1.5,0.9,2.3,2.2,2.3c1.3,0,2.1-0.9,2.1-2.2c0-1.5-0.8-2.2-2.1-2.3
			C29.3,19.5,28.6,20.4,28.6,21.9z"/>
		<path class="st2" d="M96.8,26.7c-1.9-0.7-3.7-1.3-5.6-1.2c-1.4,0.1-2.3,0.5-2.5,1.3c-0.2,0.9,0.3,1.6,1.8,2.2
			c1.6,0.7,3.2,1.1,4.7,2.1c2.6,1.6,3.4,5.1,1.8,7.7c-1.1,1.8-2.9,2.6-4.9,2.9c-2.9,0.4-5.8,0.1-8.6-1.1c-0.7-0.3-1-0.6-0.5-1.3
			c0.3-0.7,0.7-1.4,1-2.1c0.3-0.6,0.4-0.7,1-0.3c1.8,1.1,3.8,1.6,6,1.1c0.9-0.2,1.6-0.6,1.7-1.6c0.2-1-0.5-1.6-1.3-2
			c-1.2-0.7-2.6-1-3.9-1.7c-1.6-0.8-2.9-1.7-3.5-3.5c-1-3.3,0.8-6.3,4.3-7.2c2.7-0.6,5.4-0.3,8,0.5c0.3,0.1,0.5,0.3,0.5,0.7
			C96.8,24.3,96.8,25.4,96.8,26.7z"/>
		<path class="st1" d="M75.1,69.3c2,2.2,4.3,2.9,7,2.2c1-0.3,0.9,0.4,1.1,0.9c0.3,0.7-0.1,0.9-0.6,1c-3.5,0.7-6.7,0.2-9.1-2.7
			c-1-1.1-2-1.9-3.4-2.4c-3.8-1.6-6-5.6-5.7-10.2c0.3-5.1,3.3-8.8,8.1-9.7c6.5-1.1,11.5,2.9,12.1,8.9c0.4,4.1-0.8,7.6-4.2,10.1
			c-0.8,0.6-1.6,1-2.5,1.3C77,69.1,76.1,69.2,75.1,69.3z M82.2,58.8c-0.1-0.9-0.1-1.7-0.3-2.6c-0.8-3.5-3.4-5.5-7.2-5.7
			c-3.4-0.2-6.3,1.8-7.3,5c-0.5,1.6-0.6,3.2-0.4,4.8c0.6,6,7.2,9,12.1,5.5C81.5,64,82.1,61.5,82.2,58.8z"/>
		<path class="st3" d="M76.3,31.5c0-4.1,0-8.4,0-12.5c0-0.7,0.2-1,0.9-0.9c1.1,0.1,2.2,0,3.4,0c0.5,0,0.8,0.1,0.8,0.7
			c0,8.5,0,16.9,0,25.4c0,0.6-0.2,0.8-0.8,0.8c-1.1-0.1-2.2-0.1-3.3,0c-0.8,0.1-1-0.2-1-1C76.3,39.9,76.3,35.8,76.3,31.5z"/>
		<path class="st1" d="M38.1,48.2c6-0.1,10.3,4.4,10.3,10.5c0,6.1-4.1,10.4-10,10.5c-6.1,0.1-10.3-4.1-10.4-10
			C28,52.7,32.1,48.3,38.1,48.2z M45.9,58.7c0-0.7-0.1-1.6-0.3-2.5c-0.7-3-3-5.2-6-5.6c-3.8-0.4-6.6,0.9-8.1,3.7
			c-1,1.9-1.1,3.9-0.9,5.9c0.3,2.8,1.5,5,4.1,6.1c2.8,1.2,5.6,1.1,8.1-0.7C45.1,64,45.8,61.5,45.9,58.7z"/>
		<path class="st4" d="M51.5,69.1c0-0.9,0-1.5,0-2.2c0-5.9,0-11.8,0-17.6c0-0.7,0.2-1,0.9-0.9c1.8,0.1,3.6-0.2,5.4,0.3
			c3.2,0.7,4.9,2.9,4.9,6.2c0,3.3-2,5.7-5.1,6.4c-1,0.2-1.8,0.3-2.8,0.2c-0.8-0.1-1.1,0.1-1,1c0.1,0.9,0.1,1.8,0,2.8
			C53.7,66.7,53,68,51.5,69.1z M55.3,59.3c0.3,0,0.7,0,1,0c2.2-0.2,3.5-1.6,3.7-3.9c0.2-2.5-0.8-4.1-3-4.7c-0.9-0.3-1.7-0.1-2.6-0.2
			c-0.6,0-0.7,0.3-0.7,0.7c0,2.2,0,4.3,0,6.6C53.8,59.3,53.8,59.3,55.3,59.3z"/>
		<path class="st4" d="M87.9,68.8c-0.3-0.3-0.2-0.6-0.2-0.9c0-6.2,0-12.4,0-18.6c0-0.8,0.2-1,1-1c2.7,0.1,5.4,0,8.1,0
			c0.8,0,1,0.1,0.7,1c-0.3,1-0.8,1.3-1.8,1.2c-1.6-0.1-3.3,0-4.9,0c-0.5,0-0.7,0.2-0.7,0.7c0,1.8,0,3.6,0,5.5c0,0.6,0.3,0.7,0.8,0.7
			c1.8,0,3.5,0,5.4,0c0.6,0,0.9,0.1,0.8,0.8c-0.1,1.6,0.2,1.3-1.4,1.4c-1.6,0-3.2,0-4.8,0c-0.5,0-0.7,0.2-0.7,0.7c0,1.6,0,3.2,0,4.8
			C90.1,66.6,89.3,67.9,87.9,68.8z"/>
		<path class="st1" d="M57.6,33.3c0.4-1,0.8-1.9,1-2.7c0.1-0.3,0.3-0.7,0.6-0.5c0.4,0.2,0,0.5,0,0.7c-0.3,1-0.9,2.1-1.2,3
			c-0.1,0.3-0.2,0.4-0.5,0.4c-0.3,0-0.3-0.3-0.4-0.4c-0.3-0.9-0.7-1.8-1-2.7c-0.1-0.3-0.1-0.9-0.4-0.6c-0.5,0.3-1.5,0-1.5,1
			c0,0.7,0,1.5,0,2.2c0,0.3,0,0.5-0.3,0.5c-0.4,0-0.3-0.3-0.3-0.5c0-1,0-2.2,0-3.2c0-0.2,0.1-0.5,0.3-0.4c0.6,0.4,1-0.2,1.6-0.2
			c0.7,0.1,1.3,0.1,1.5,1C56.9,31.6,57.2,32.3,57.6,33.3z"/>
		<path class="st1" d="M34.6,31.1c0,0.8,0,1.6,0,2.3c0,0.5-0.2,0.7-0.6,0.8c-1.5,0.3-2.7-0.3-2.9-1.6c-0.3-1.4,0.6-2.6,2.1-2.7
			c0.6,0,0.7-0.3,0.6-0.7c0-0.3,0-0.5,0-0.8c0-0.3,0.1-0.5,0.4-0.4c0.3,0,0.3,0.3,0.3,0.4C34.6,29.3,34.6,30.2,34.6,31.1z
			 M33.9,32.1c0-0.3,0-0.4,0-0.7c-0.1-0.3,0.3-0.9-0.3-1c-0.4-0.1-1,0-1.3,0.4c-0.6,0.6-0.6,1.6-0.1,2.2c0.4,0.4,1,0.6,1.5,0.4
			c0.5-0.2,0.2-0.6,0.3-1C33.9,32.5,33.9,32.3,33.9,32.1z"/>
		<path class="st1" d="M48.5,41.5c0-0.4,0.1-1,0.3-1.4c0.4-0.7,1.2-1,2-0.6c0.6,0.3,1.1,1.3,1,1.9c-0.1,0.3-0.3,0.3-0.5,0.3
			c-0.5,0-1,0-1.6,0c-0.5,0-0.5,0.3-0.3,0.6c0.3,0.8,1,1,1.7,0.7c0.2-0.1,0.4-0.2,0.6,0.1c0.2,0.3-0.2,0.4-0.4,0.5
			C49.8,44.2,48.5,43.2,48.5,41.5z M50.2,41.1c0.3-0.3,0.9,0.3,1-0.3c0.1-0.4-0.3-0.9-0.9-0.9c-0.4,0-0.9,0.3-0.9,0.8
			C49.3,41.4,49.8,41,50.2,41.1z"/>
		<path class="st1" d="M46.5,34.3c-0.3,0-0.8-0.1-1.1-0.3c-0.2-0.1-0.3-0.2-0.3-0.4s0.3-0.3,0.5-0.2c0.3,0.2,0.8,0.3,1.2,0.3
			c0.3-0.1,0.7-0.2,0.9-0.5c0.2-0.4,0-0.8-0.3-1c-0.4-0.3-0.9-0.5-1.3-0.9c-0.9-0.6-1.1-1.6-0.6-2.2c0.4-0.6,1.8-0.9,2.5-0.4
			c0.3,0.2,0.3,0.3,0.3,0.5c-0.1,0.3-0.3,0.1-0.4,0.1c-0.6-0.1-1.5-0.4-1.7,0.3c-0.3,0.9,0.5,1.1,1.1,1.6c0.1,0.1,0.3,0.2,0.4,0.3
			c0.7,0.4,1.1,1,0.9,1.9C48.2,34,47.5,34.3,46.5,34.3z"/>
		<path class="st1" d="M40.5,41.5c0-0.3,0.1-0.8,0.3-1.1c0.3-0.8,1.2-1.1,2-0.9c0.7,0.3,1.3,1.1,1.2,1.9c0,0.3-0.2,0.4-0.5,0.4
			c-0.5,0-1,0-1.6,0c-0.7,0-0.7,0.3-0.4,0.8c0.4,0.6,1,0.8,1.6,0.5c0.3-0.1,0.5-0.2,0.6,0.2c0.1,0.3-0.3,0.3-0.4,0.4
			C41.8,44.2,40.5,43.3,40.5,41.5z M42.2,41.1c0.2-0.3,0.8,0.3,0.8-0.4c0-0.4-0.3-0.8-0.8-0.8c-0.5,0-0.9,0.3-1,0.8
			C41.3,41.4,42,41,42.2,41.1z"/>
		<path class="st1" d="M58.2,23.1c0,0.3,0,0.5,0,0.8c-0.1,0.4,0.3,1.3-0.7,0.7c-0.2-0.1-0.6,0.2-0.9,0.3c-0.8,0.2-1.5-0.3-1.6-1
			c-0.2-0.8,0.3-1.4,1.1-1.6c0.2-0.1,0.4,0,0.7-0.1c0.3-0.1,0.7,0.2,0.7-0.4c0-0.4-0.3-0.7-0.8-0.7c-0.3,0-0.5,0.1-0.8,0.2
			c-0.2,0.1-0.3,0.1-0.5-0.1c-0.1-0.3,0-0.3,0.2-0.4c0.6-0.3,1.3-0.3,1.9-0.1c0.6,0.3,0.7,0.9,0.7,1.5
			C58.2,22.4,58.2,22.7,58.2,23.1z M57,22.8c-0.5,0.1-1.2-0.1-1.2,0.8c0,0.5,0.3,0.7,0.8,0.7c0.5,0,1-0.2,1-0.9
			C57.4,23,57.4,22.6,57,22.8z"/>
		<path class="st1" d="M41.9,23c0,1.6,0,1.6-1.7,1.8c-0.8,0.1-1.3-0.3-1.5-1c-0.2-0.8,0.3-1.4,1-1.6c0.3-0.1,0.6-0.1,0.9-0.1
			c0.3-0.1,0.5,0.1,0.5-0.3c0-0.3-0.2-0.6-0.5-0.7c-0.3-0.1-0.7,0-1,0.1c-0.3,0.1-0.4,0.2-0.5-0.1c-0.1-0.3,0.2-0.3,0.3-0.4
			c1.3-0.7,2.5,0,2.5,1.6C41.9,22.5,41.9,22.7,41.9,23z M41.1,23.3c0-0.3,0-0.6-0.5-0.5c-0.5,0.1-1.2-0.1-1.2,0.8
			c0,0.5,0.3,0.7,0.9,0.7C40.7,24.1,41.2,24,41.1,23.3z"/>
		<path class="st1" d="M63.6,41.7c0-1,0.3-1.8,1.2-2.2c1.1-0.4,2.3,0.7,2.2,1.9c0,0.3-0.3,0.3-0.5,0.3c-0.5,0-1,0-1.5,0
			c-0.7,0-0.7,0.3-0.4,0.8c0.3,0.6,1,0.8,1.6,0.6c0.3-0.1,0.6-0.3,0.7,0.1c0.1,0.3-0.3,0.4-0.6,0.5C64.8,44.2,63.6,43.2,63.6,41.7z
			 M65.4,41.1c0.3-0.3,0.8,0.3,0.9-0.4c0-0.4-0.3-0.8-0.8-0.8c-0.5,0-0.9,0.3-1,0.8C64.4,41.4,65,41,65.4,41.1z"/>
		<path class="st1" d="M64.1,22.6c0-1.4,0.8-2.2,1.9-2.2c1.1,0,1.9,0.9,1.9,2.2c0,1.3-0.8,2.2-1.9,2.2C64.8,24.9,64.1,24,64.1,22.6z
			 M64.8,22.5c0,1,0.4,1.6,1.2,1.6c0.7,0,1.2-0.5,1.2-1.5c0-1-0.4-1.6-1.1-1.6C65.3,21,64.8,21.6,64.8,22.5z"/>
		<path class="st1" d="M67.7,34.3c-1.1,0-1.7-0.5-2-1.5c-0.3-1.1,0.1-2.2,0.9-2.7c0.6-0.3,1.2-0.3,1.7,0.1c0.5,0.4,0.7,1,0.7,1.6
			c0,0.4-0.3,0.3-0.5,0.3c-0.5,0-1,0-1.6,0c-0.5,0-0.6,0.3-0.3,0.6c0.3,0.7,0.9,0.9,1.6,0.8c0.3,0,0.6-0.4,0.7,0
			c0.2,0.4-0.3,0.4-0.6,0.5C68,34.3,67.8,34.2,67.7,34.3z M67.3,31.7c0.3-0.2,1,0.3,0.9-0.4c0-0.4-0.3-0.8-0.9-0.8s-1,0.3-1,0.9
			C66.4,32,67,31.5,67.3,31.7z"/>
		<path class="st1" d="M49.2,32.1c0-1.1,0.4-1.8,1.3-2.1c0.6-0.2,1.1,0,1.6,0.4c0.4,0.4,0.5,1,0.5,1.6c0,0.3-0.3,0.3-0.5,0.3
			c-0.4,0-0.9,0-1.3,0c-0.3,0-0.6-0.2-0.7,0.2c-0.1,0.3,0.1,0.6,0.3,0.9c0.4,0.4,1,0.4,1.5,0.3c0.3-0.1,0.4-0.2,0.5,0.1
			c0.1,0.3-0.2,0.3-0.3,0.4C50.6,34.8,49.2,33.8,49.2,32.1z M50.9,31.7c0.3-0.2,0.9,0.3,0.9-0.4c0-0.5-0.3-0.8-0.9-0.8
			c-0.5,0-0.9,0.3-0.9,0.9C50.1,32,50.6,31.5,50.9,31.7z"/>
		<path class="st1" d="M35.5,32c0-1.5,1.1-2.4,2.3-2c0.7,0.3,1.2,1.2,1.1,1.9c-0.1,0.3-0.3,0.3-0.5,0.3c-0.4,0-1,0-1.4,0
			c-0.3,0-0.5-0.1-0.7,0.2c-0.1,0.3,0.1,0.5,0.3,0.8c0.4,0.5,1,0.5,1.6,0.3c0.2-0.1,0.4-0.2,0.5,0.1c0.1,0.3-0.2,0.3-0.3,0.4
			C36.9,34.8,35.5,33.7,35.5,32z M37.2,31.7c0.3-0.2,0.9,0.3,0.9-0.4c0-0.5-0.3-0.9-0.9-0.9s-0.9,0.3-0.9,0.9
			C36.3,32,36.9,31.5,37.2,31.7z"/>
		<path class="st1" d="M68.7,22.6c0-0.3-0.1-0.8,0-1.1s-0.3-1.4,0.8-0.6c0.1,0.1,0.4-0.2,0.7-0.3c1-0.3,1.8,0.1,1.9,1.3
			c0,0.8,0,1.6,0,2.4c0,0.3,0,0.4-0.3,0.4c-0.3,0-0.4-0.2-0.4-0.4c0-0.7,0-1.4,0-2.1c0-0.5,0.1-1.1-0.7-1c-0.6,0.1-1.2,0.3-1.2,1.1
			c0,0.7,0,1.3,0,2c0,0.2,0.1,0.4-0.3,0.5c-0.3,0-0.4-0.3-0.4-0.5C68.7,23.7,68.7,23.2,68.7,22.6z"/>
		<path class="st1" d="M33.3,41.7c0-0.3,0-0.6,0-1c0-0.9,0-0.9,0.8-0.9c0.3,0,0.5-0.3,0.8-0.3c1-0.3,1.6,0.1,1.7,1
			c0.1,0.9,0.1,1.8,0.1,2.8c0,0.3-0.1,0.4-0.3,0.4c-0.3,0-0.3-0.3-0.3-0.4c0-0.7,0-1.5,0-2.2c0-0.5-0.2-1-0.8-1
			c-0.6,0.1-1.1,0.3-1.2,1c0,0.7,0,1.4,0,2.1c0,0.3,0,0.5-0.3,0.5c-0.4,0-0.3-0.3-0.3-0.5C33.3,42.7,33.3,42.2,33.3,41.7z"/>
		<path class="st1" d="M37.7,22.7c0,0.4,0,0.8,0,1.2c0,0.3,0.3,1.2-0.7,0.5c-0.1-0.1-0.3,0.1-0.6,0.2c-1.2,0.4-2-0.1-2-1.4
			c0-0.8,0-1.6,0-2.2c0-0.2-0.1-0.4,0.3-0.4c0.3,0,0.4,0.2,0.4,0.4c0,0.7,0,1.4,0,2.1c0,0.6,0,1.1,0.8,1.1c0.7,0,1-0.4,1-1.1
			s0-1.3,0-2c0-0.3,0.1-0.5,0.4-0.4c0.3,0,0.3,0.3,0.3,0.5C37.7,21.6,37.7,22.2,37.7,22.7L37.7,22.7z"/>
		<path class="st1" d="M62.7,42c0,0.3,0.1,0.8,0.1,1.3c0,0.2,0,0.6-0.3,0.4c-0.6-0.4-1,0-1.5,0.1c-0.9,0.1-1.5-0.3-1.6-1.1
			c-0.1-0.9-0.1-1.7-0.1-2.7c0-0.3,0.1-0.4,0.3-0.4c0.3,0,0.3,0.3,0.3,0.4c0,0.7,0,1.5,0,2.2c0,0.5,0.2,1,0.8,1s1.1-0.3,1.1-1
			c0-0.6,0-1.2,0-1.8c0-0.3-0.3-0.8,0.3-0.8c0.5,0,0.3,0.5,0.3,0.9C62.7,40.8,62.7,41.3,62.7,42z"/>
		<path class="st1" d="M42.9,21.4c0-0.8,0-1.6,0-2.3c0-0.3-0.1-0.6,0.3-0.6c0.4,0,0.3,0.3,0.3,0.6c0,1.3,0,2.5,0,3.8
			c0,0.5-0.3,1.1,0.4,1.5c0.3,0.1,0.1,0.4-0.3,0.5c-0.7,0.1-1-0.2-1-0.8C42.8,23.2,42.9,22.3,42.9,21.4L42.9,21.4z"/>
		<path class="st1" d="M41.4,30.6c-0.4-0.1-0.9-0.1-1,0.3c-0.3,0.5,0.3,0.7,0.6,0.9c0.3,0.2,0.6,0.3,0.8,0.5
			c0.6,0.6,0.5,1.6-0.3,1.9c-0.6,0.3-1.2,0.3-1.8,0.1c-0.2-0.1-0.4-0.1-0.3-0.3c0.1-0.2,0.2-0.3,0.4-0.2c0.1,0.1,0.3,0.1,0.3,0.1
			c0.4,0,1,0.2,1.1-0.3c0.2-0.6-0.3-0.7-0.7-1c-0.3-0.2-0.5-0.3-0.7-0.4c-0.5-0.4-0.5-1.2-0.1-1.6c0.4-0.4,1.7-0.5,2.1-0.1
			c0.1,0.1,0.1,0.3,0.1,0.3C41.9,30.8,41.6,30.5,41.4,30.6z"/>
		<path class="st1" d="M48.4,18.5c0.3,0,0.6-0.1,0.6,0.3c0.1,0.4-0.3,0.3-0.6,0.3c-0.6,0.1-0.5,0.5-0.5,1s0.2,0.5,0.5,0.5
			c0.2,0,0.4-0.1,0.4,0.3c0,0.2-0.2,0.3-0.3,0.3c-0.7-0.1-0.6,0.4-0.6,0.8c0,0.8,0,1.6,0,2.2c0,0.3,0,0.6-0.4,0.5
			c-0.4,0-0.3-0.3-0.3-0.5c0-0.8,0-1.6,0-2.2c0-0.3,0.2-0.7-0.3-0.9c0,0-0.1,0-0.1-0.1c0-0.1-0.1-0.3,0-0.3
			C47.7,20.2,46.7,18.4,48.4,18.5z"/>
		<path class="st1" d="M70.6,34.3c-0.1,0-0.3,0-0.5-0.1c-0.3-0.1-0.5-0.1-0.5-0.4c0.1-0.4,0.3-0.3,0.6-0.2s0.5,0.1,0.8,0.1
			s0.5-0.1,0.6-0.3c0.1-0.3-0.1-0.6-0.3-0.7c-0.3-0.3-0.7-0.3-1-0.6c-0.4-0.3-0.5-0.8-0.3-1.3c0.1-0.5,0.5-0.7,1-0.8s1,0,1.3,0.3
			c0.2,0.2,0.2,0.4-0.2,0.4c-0.1,0-0.2,0-0.3,0c-0.4-0.1-1-0.2-1.2,0.3c-0.3,0.6,0.4,0.7,0.9,1c0.4,0.3,0.9,0.4,1,1
			C72.5,33.7,71.9,34.3,70.6,34.3z"/>
		<path class="st1" d="M70.6,43.8c-0.2,0-0.4,0-0.6-0.1c-0.2-0.1-0.4-0.1-0.3-0.4s0.3-0.3,0.5-0.2c0.2,0.1,0.3,0.1,0.4,0.1
			c0.3,0,0.8,0.1,1-0.4c0.2-0.4-0.2-0.7-0.5-0.9c-0.2-0.1-0.3-0.2-0.5-0.3c-0.7-0.4-1-1.1-0.6-1.7c0.3-0.5,1.6-0.8,2.2-0.3
			c0.2,0.1,0.2,0.3,0.2,0.4c-0.1,0.2-0.2,0.2-0.3,0.1c-0.2,0-0.3-0.1-0.4-0.1c-0.4-0.1-0.8,0-1,0.3c-0.2,0.4,0.3,0.6,0.5,0.8
			c0.1,0.1,0.3,0.1,0.3,0.2c0.7,0.3,1.1,0.8,0.9,1.6C72,43.6,71.4,43.7,70.6,43.8z"/>
		<path class="st1" d="M53.3,41.7c0.1,1,0.8,1.6,1.8,1.4c0.3-0.1,0.6-0.4,0.7,0.1c0.1,0.3-0.3,0.4-0.6,0.5c-0.9,0.2-1.6,0.1-2.2-0.7
			c-0.6-0.8-0.6-2.1,0-2.9c0.6-0.7,1.3-1,2.2-0.7c0.3,0.1,0.6,0.2,0.5,0.5c-0.1,0.4-0.4,0.1-0.6,0.1C53.9,39.9,53.2,40.5,53.3,41.7z
			"/>
		<path class="st1" d="M57.7,43.7c-0.6,0-1-0.3-1-0.9c0-0.6,0-1.3,0-1.9c0-0.3,0.2-0.9-0.4-1c-0.2,0-0.2-0.3-0.1-0.3
			c0.9,0,0.3-1.2,1.1-1.2h0.1c0,0.8,0.4,1.2,1.2,1.1c0,0,0,0.2,0,0.3c-0.1,0.3-0.3,0.3-0.4,0.3c-0.7-0.1-0.7,0.3-0.7,0.8
			c0,0.4,0,0.9,0,1.3c0,0.5-0.1,1.2,0.9,0.8c0.2-0.1,0.3,0,0.3,0.2c0.1,0.2,0,0.3-0.2,0.3C58.3,43.6,58,43.7,57.7,43.7z"/>
		<path class="st1" d="M61.4,20.6c0,0.3-0.2,0.5-0.3,0.5c-1-0.2-1,0.4-0.9,1.1c0,0.4,0,0.8,0,1.2c0,0.6,0.2,1,0.9,0.7
			c0.2-0.1,0.3-0.2,0.3,0.1c0,0.1,0,0.3,0,0.3c-0.3,0.3-0.8,0.3-1.2,0.3c-0.4-0.1-0.6-0.3-0.6-0.8c0-0.7,0-1.3,0-2
			c0-0.3,0.3-1-0.5-1c-0.2,0-0.2-0.3-0.1-0.3c0.9,0.1,0.3-1.2,1.1-1.2c0.1,0,0.2,0.2,0.2,0.2C60,20.8,60.8,20.5,61.4,20.6z"/>
		<path class="st1" d="M61.9,32.1c0-1.6,1.2-2.6,2.7-2.2c0.3,0.1,0.5,0.2,0.4,0.5c-0.1,0.5-0.4,0.2-0.6,0.1
			c-0.6-0.1-1.2-0.1-1.6,0.5c-0.3,0.6-0.4,1.3,0,2c0.3,0.6,1,0.7,1.6,0.5c0.3-0.1,0.5-0.3,0.6,0.1c0.1,0.3-0.3,0.3-0.4,0.4
			C63.2,34.7,61.9,33.8,61.9,32.1z"/>
		<path class="st1" d="M51.3,22.7c0-1.6,1.2-2.6,2.6-2.2c0.3,0.1,0.5,0.2,0.4,0.6c-0.1,0.3-0.3,0.1-0.5,0c-0.6-0.1-1.2-0.1-1.6,0.5
			c-0.4,0.6-0.4,1.3,0,2c0.4,0.7,1,0.7,1.6,0.5c0.2-0.1,0.4-0.3,0.5,0.1c0.2,0.3-0.3,0.4-0.4,0.5C52.7,25.2,51.4,24.4,51.3,22.7z"/>
		<path class="st1" d="M32,40.9c0,0.8,0,1.6,0,2.3c0,0.3,0,0.5-0.4,0.5c-0.3,0-0.3-0.3-0.3-0.4c0-1.6,0-3.3,0-4.9
			c0-0.3,0.1-0.4,0.3-0.4c0.3,0,0.3,0.3,0.3,0.5C32,39.2,32,40,32,40.9z"/>
		<path class="st1" d="M44.7,40.4c0-0.7,0-1.5,0-2.2c0-0.3-0.2-0.7,0.3-0.7s0.3,0.4,0.3,0.7c0,1.2,0,2.4,0,3.6
			c0,0.5-0.3,1.1,0.5,1.5c0.2,0.1,0.1,0.3-0.2,0.5c-0.5,0.2-1-0.2-1-0.9C44.7,42.1,44.7,41.2,44.7,40.4z"/>
		<path class="st1" d="M67.9,40.4c0-0.8,0-1.6,0-2.3c0-0.3-0.1-0.5,0.3-0.5c0.4,0,0.4,0.3,0.4,0.5c0,1.5,0,2.9,0,4.3
			c0,0.3-0.2,0.7,0.3,0.8c0.3,0.1,0.3,0.2,0.3,0.4c-0.1,0.2-0.3,0.2-0.5,0.2c-0.5,0-0.8-0.3-0.8-0.9C67.9,42.1,67.9,41.2,67.9,40.4
			L67.9,40.4z"/>
		<path class="st1" d="M39,43.7c-0.7,0-1-0.3-1-0.9c0-0.6,0-1.1,0-1.7c0-0.4,0.3-1-0.6-1.1c-0.2,0-0.2-0.3-0.1-0.3
			c1,0.2,0.3-1.3,1.2-1.2c0.1,0,0.1,0.2,0.1,0.3c-0.1,0.6,0.2,0.8,0.8,0.8c0.2,0,0.4-0.1,0.4,0.3c0,0.2-0.2,0.3-0.3,0.3
			c-0.9-0.2-0.8,0.4-0.8,1c0,0.4,0,1,0,1.4s0.2,0.8,0.7,0.6c0.3-0.1,0.5-0.3,0.6,0.1c0.1,0.3-0.3,0.3-0.5,0.4
			C39.3,43.7,39.1,43.7,39,43.7z"/>
		<path class="st1" d="M61,32.1c0,0.5,0,1,0,1.6c0,0.3-0.1,0.4-0.3,0.4c-0.3,0-0.3-0.2-0.3-0.4c0-1.1,0-2.2,0-3.4
			c0-0.3,0.1-0.3,0.3-0.3c0.3,0,0.4,0.1,0.4,0.3C61,31,61,31.5,61,32.1z"/>
		<path class="st1" d="M49.6,22.5c0-0.5,0-1,0-1.6c0-0.3,0.1-0.4,0.3-0.4c0.3,0,0.3,0.2,0.3,0.4c0,1.1,0,2.2,0,3.3
			c0,0.3-0.1,0.5-0.4,0.4c-0.3,0-0.3-0.3-0.3-0.4C49.6,23.7,49.6,23.2,49.6,22.5z"/>
		<path class="st1" d="M45.7,22.6c0,0.6,0,1.1,0,1.7c0,0.3,0,0.4-0.3,0.4c-0.3,0-0.4-0.2-0.4-0.4c0-1.1,0-2.2,0-3.5
			c0-0.3,0.2-0.3,0.4-0.3c0.3,0,0.3,0.3,0.3,0.4C45.7,21.5,45.7,22.1,45.7,22.6z"/>
		<path class="st1" d="M46.8,40.4c0-0.7,0-1.5,0-2.2c0-0.3-0.3-0.7,0.3-0.8c0.5,0,0.3,0.4,0.3,0.7c0,1.2,0,2.4,0,3.7
			c0,0.5-0.3,1.1,0.5,1.4c0.1,0,0.1,0.3,0.1,0.3c-0.1,0.2-0.3,0.2-0.5,0.2c-0.3,0-0.6-0.1-0.7-0.4c-0.1-0.4,0-0.8-0.1-1.2
			C46.8,41.6,46.8,41,46.8,40.4z"/>
		<path class="st1" d="M62.3,22.6c0-0.5,0-1,0-1.6c0-0.3,0-0.4,0.3-0.4S63,20.7,63,21c0,1.1,0,2.2,0,3.3c0,0.3-0.1,0.4-0.3,0.4
			c-0.3,0-0.3-0.2-0.3-0.4C62.3,23.8,62.3,23.2,62.3,22.6z"/>
		<path class="st1" d="M50,19.7c-0.3,0-0.5-0.2-0.5-0.4c0-0.3,0.1-0.4,0.3-0.4c0.3,0,0.5,0.1,0.5,0.3C50.4,19.5,50.2,19.7,50,19.7z"
			/>
		<path class="st1" d="M60.5,29.2c-0.3-0.1-0.5-0.2-0.4-0.5c0.1-0.3,0.3-0.4,0.5-0.3c0.3,0,0.4,0.2,0.3,0.4
			C61.1,29,60.9,29.2,60.5,29.2z"/>
		<path class="st1" d="M63.1,19.1c0,0.4-0.2,0.6-0.4,0.6s-0.5-0.2-0.4-0.4c0-0.3,0.2-0.4,0.4-0.4S63.1,18.9,63.1,19.1z"/>
		<path class="st1" d="M44.9,19.3c0-0.3,0.2-0.4,0.5-0.4c0.3,0,0.4,0.2,0.4,0.4c0,0.3-0.2,0.5-0.4,0.5
			C45.1,19.7,44.9,19.6,44.9,19.3z"/>
		<path class="st5" d="M108.4,38.2c-1.1,0.8-1.5,1.6-1,2.9c-1-0.8-2-0.9-3,0c0.3-1.1,0.3-2.2-1-2.9c1.3,0,2.1-0.6,2.4-1.8
			C106.3,37.8,107,38.3,108.4,38.2z"/>
		<path class="st5" d="M144.9,35.6c1,1.5,1,1.5,2.6,1.8c-1,0.8-1.6,1.6-1,2.9c-1-0.8-2.1-0.9-3.1,0c0.4-1.2,0.2-2.2-1-2.9
			C143.9,37.5,144.6,36.9,144.9,35.6z"/>
		<path class="st5" d="M124.8,8.1c0.5,1.4,1,2.2,2.5,2c-0.9,0.8-1.6,1.6-0.9,2.9c-1-0.7-2-0.8-3,0c0.4-1.3,0-2.2-1.2-2.9
			C123.7,10.2,124.5,9.7,124.8,8.1z"/>
	</g>
</g>
</svg>
