

<svg version="1.1"  xmlns="http://www.w3.org/2000/svg" xmlns:xlink="http://www.w3.org/1999/xlink" x="0px" y="0px"
	 viewBox="0 0 180 80" style="enable-background:new 0 0 180 80;" xml:space="preserve">
<style type="text/css">
	.st0{fill:#376FB6;}
	.st1{fill:#3770B6;}
	.st2{fill:#24193F;}
	.st3{fill:#23183E;}
</style>
<g>
	<path class="st0" d="M178.5,38.9c-1.7,2.3-2.8,4.6-4.8,6.4c2.4,1.8,3.4,4.6,5.2,6.9c-1.7,0.4-2.1,0.3-3-1c-0.7-1.1-1.4-2.2-2.2-3.3
		c-0.9-1.3-3.2-1.9-4.6-1.5c-0.4,0.1-0.3,0.4-0.3,0.7c0,1.5-0.1,3.1,0,4.6c0,0.8-0.4,0.8-1,0.7c-0.5,0-1.1,0.2-1.1-0.7
		c0-5.8,0-11.6,0-17.4c0-1,0.6-0.7,1.1-0.8c0.6-0.1,0.9,0.1,0.9,0.8c0,3.1,0,6.2,0,9.3c0,0.6,0.1,0.8,0.8,0.9
		c2.1,0.2,3.5-0.6,4.5-2.4c0.4-0.8,1-1.4,1.4-2.2c0.4-0.8,1-1.2,2-1.1C177.8,39,178,38.9,178.5,38.9z"/>
	<path class="st1" d="M153.7,45.5c0.1,2.2,0.9,3.8,2.8,4.7c2,0.9,4,0.7,5.6-0.8c0.8-0.7,1-0.2,1.5,0.2c0.6,0.6,0.1,0.9-0.3,1.2
		c-2.7,2.5-7.1,2.3-9.7-0.3c-2.6-2.7-2.6-7,0.1-9.7c2.6-2.6,6.9-2.8,9.6-0.3c0.3,0.3,0.9,0.6,0.3,1.2c-0.5,0.4-0.7,0.9-1.5,0.2
		c-1.6-1.4-3.6-1.8-5.6-0.8C154.7,42,153.8,43.6,153.7,45.5z"/>
	<path class="st2" d="M96.9,46.6c0-1.6,0-3.2,0-4.9c0-0.7-0.2-0.9-0.9-0.9c-1,0.1-1.4-0.6-1.1-1.6c0.2-0.5,0.6-0.3,0.9-0.3
		c0.9,0.1,1.2-0.2,1.1-1.1c-0.1-0.9,0-1.8,0-2.8c0-0.5,0.1-0.7,0.7-0.7c1.3,0,1.3,0,1.3,1.3c0,0.8,0,1.6,0,2.4
		c0,0.6,0.1,0.9,0.8,0.9c1.2-0.1,1.4,0.3,1.2,1.5c-0.1,0.6-0.6,0.4-0.8,0.3c-1-0.1-1.2,0.2-1.2,1.2c0.1,3.2,0,6.4,0.1,9.6
		c0,1-0.5,0.8-1.1,0.8c-0.6,0-1,0-1-0.8C96.9,49.9,96.9,48.2,96.9,46.6z"/>
	<path class="st3" d="M68.6,33.7c-2.3-0.4-4.6-0.1-7-0.2c-0.7,0-0.9,0.1-0.9,0.8c0,2.9,0,5.7,0,8.6c0,2.9,0,5.8,0,8.7
		c0,0.4-0.1,0.8,0.6,0.8c2.2-0.1,4.5,0.1,6.7-0.1c4.7-0.5,8.2-4.2,8.3-8.9C76.5,38.4,73.4,34.5,68.6,33.7z M74.3,43.3
		c-0.1,3.8-2.8,6.7-6.5,7c-1.4,0.1-2.7,0-4.1,0.1c-0.6,0-0.7-0.2-0.7-0.8c0-2.2,0-4.5,0-6.7c0-2.2,0-4.5,0-6.7
		c0-0.7,0.2-0.9,0.9-0.8c1.5,0.1,2.9-0.1,4.4,0.1C72,36.2,74.4,39.2,74.3,43.3z"/>
	<path class="st0" d="M133,34.2c0-0.9-0.6-0.6-1.1-0.6c-0.5,0-0.9-0.1-0.9,0.7c0,2.1,0,4.3,0,6.4c0,0.2,0.1,0.5-0.1,0.7
		c-2.9-3.2-6.9-3.4-9.7-0.6c-2.8,2.8-2.6,7.5,0.3,10.2c2.4,2.1,7.1,2.7,9.9-1.3c0,0.8,0.1,1.5,0.1,2.2c0,0.6,0.3,0.7,0.8,0.7
		c0.5,0,0.6-0.2,0.6-0.7C133,45.9,132.9,40.1,133,34.2z M126.1,50.7c-2.7,0-5-2.2-5-5c0-2.8,2.2-5,4.9-5c2.8,0,5,2.2,5,5.1
		C131.1,48.5,128.9,50.7,126.1,50.7z"/>
	<path class="st3" d="M92,39.6c0-0.5-0.1-0.7-0.7-0.7c-0.5,0-0.8,0.1-0.8,0.7c0,0.7,0,1.3,0,2c-2.8-3.7-7.4-3.4-9.9-1.3
		c-3,2.5-3.3,7.2-0.6,10.1c1.3,1.4,2.9,2.1,4.8,2.2c2.4,0,4.2-1,5.7-3.2c0,1,0,1.7,0,2.4c0,0.6,0.3,0.6,0.8,0.7
		c0.5,0,0.7-0.1,0.7-0.7C92,47.7,92,43.7,92,39.6z M85.2,50.7c-2.7,0-4.9-2.2-5-5c0-2.8,2.2-5.1,5-5.1c2.8,0,4.9,2.2,4.9,5
		C90.1,48.5,88,50.7,85.2,50.7z"/>
	<path class="st3" d="M116.3,39.7c0-0.6-0.1-0.8-0.7-0.8c-0.6,0-0.7,0.3-0.7,0.8c0,0.6,0,1.3,0,2.1c-3.1-3.6-7.1-4.1-10-1.4
		c-2.9,2.6-3.1,7.2-0.4,10c1.3,1.3,2.8,2,4.7,2.1c2.4,0.1,4.3-0.9,5.7-2.9c0.1,0.7,0.1,1.4,0.1,2c0,0.6,0.2,0.7,0.8,0.7
		c0.6,0,0.7-0.2,0.7-0.7C116.3,47.7,116.3,43.7,116.3,39.7z M109.4,50.7c-2.7,0-4.9-2.3-4.9-5c0-2.8,2.2-5,4.9-5c2.8,0,5,2.2,5,5
		C114.4,48.5,112.2,50.7,109.4,50.7z"/>
	<path class="st1" d="M142.8,38.7c-3.8,0-6.9,3.1-7,6.9c0,3.8,3,6.9,6.9,7c3.8,0.1,7-3.1,7-6.8C149.8,41.9,146.6,38.8,142.8,38.7z
		 M142.8,50.7c-2.7,0-5-2.2-5-5c0-2.8,2.2-5.1,5-5.1c2.8,0,4.9,2.2,4.9,5C147.7,48.5,145.5,50.7,142.8,50.7z"/>
</g>
<g>
	<path class="st3" d="M45.4,18.7c0-0.6-0.1-0.7-0.7-0.7C30.4,18,16,18,1.7,18C1.1,18,1,18.1,1,18.6C1,33,1,47.4,1,61.7
		c0,0.6,0.1,0.7,0.7,0.7c7.2,0,14.3,0,21.5,0c7.2,0,14.4,0,21.6,0c0.5,0,0.7-0.1,0.7-0.7C45.4,47.4,45.4,33.1,45.4,18.7z M43.8,60.1
		c0,0.5-0.1,0.6-0.6,0.6c-13.3,0-26.7,0-40,0c-0.5,0-0.6-0.2-0.6-0.6c0-13.3,0-26.5,0-39.8c0-0.6,0.2-0.7,0.7-0.7
		c6.6,0,13.3,0,19.9,0s13.3,0,19.9,0c0.5,0,0.6,0.1,0.6,0.6C43.8,33.5,43.8,46.8,43.8,60.1z"/>
	<path class="st3" d="M24.2,37.7c-0.8-3.1-3.4-5.2-6.8-5.3c-1.3,0-2.6,0-3.9,0c-0.4,0-0.4,0.1-0.4,0.4c0,4.7,0,9.5,0,14.2
		c0,0.2,0,0.4,0.3,0.4c1.8-0.1,3.7,0.2,5.5-0.2c1.3-0.3,2.4-0.8,3.4-1.7c0.3,0.5,0.5,1.1,0.9,1.5c0.2,0.3-0.1,0.4-0.2,0.5
		c-1.7,1.3-3.6,1.9-5.8,1.9c-1.9,0-3.8,0-5.7,0c-0.4,0-0.5-0.2-0.5-0.5c0-6,0-12,0-17.9c0-0.4,0.1-0.6,0.5-0.5c2,0,4.1-0.1,6.1,0
		c3.6,0.2,6.4,1.8,8,5.1c1.6,3.3,1.4,6.6-0.5,9.7c-0.1,0-0.1-0.1-0.1-0.2c-0.5-1.3-0.6-2.5-0.3-3.9c0.2-0.8,0.1-1.7,0-2.6
		c0-0.3,0-0.5-0.3-0.7C24.2,37.8,24.2,37.8,24.2,37.7z"/>
	<path class="st0" d="M24.9,45.2c-0.1,0.3,0.1,0.4,0.3,0.6c1.4,1.8,3.9,2.3,6,1.4c2.1-1,3.3-3.2,2.8-5.6c-0.4-2.3-2.3-3.9-4.5-4.1
		c-0.7,0-1.4,0-2.1,0.3c-0.5,0.2-0.6,0-0.6-0.4c0-0.2-0.1-0.3-0.1-0.5c-0.3-0.9-0.3-0.9,0.7-1.2c2.6-0.6,4.9,0.2,6.5,2.3
		c0,0.1,0.1,0.1,0.2,0.2c0.2-0.1,0.1-0.2,0.1-0.4c0-2.3,0-4.6,0-6.9c0-0.5,0.1-0.6,0.6-0.6c1.4,0,1.4,0,1.4,1.4c0,5.6,0,11.3,0,16.9
		c0,0.5,0,0.8-0.6,0.7c-0.5,0-0.9,0.1-0.9-0.7c0.1-0.7,0-1.4,0-2.1c-0.2-0.1-0.3,0-0.3,0.1c-2,3.1-6.4,3.7-9.4,1.4
		c-3-2.3-3.5-6.9-1.2-9.9c0.1-0.1,0.1-0.1,0.2-0.2c0.3,0,0.3,0.2,0.3,0.4c0.2,1.1,0.1,2.2-0.1,3.2c-0.1,0.8-0.2,1.6,0.2,2.4
		C24.7,44.3,24.7,44.8,24.9,45.2C25,45.1,25,45.1,24.9,45.2z"/>
	<path class="st0" d="M24.3,44.2c-0.3,0-0.3,0-0.4-0.3c-0.2-1-0.1-1.9,0.1-2.9c0.1-1,0.2-1.9-0.2-2.9c0.1-0.1,0.2-0.3,0.3-0.4
		c0,0,0.1,0,0.1,0c0.4,0.6,0.3,1.3,0.4,1.9c0,0.8,0,1.5-0.2,2.3c-0.3,0.6-0.2,1.2,0,1.8C24.3,43.8,24.4,44,24.3,44.2z"/>
	<path class="st3" d="M24.3,44.2c-0.1-0.1-0.1-0.3-0.1-0.5c-0.1-0.6-0.2-1.3,0-1.9c0.4-1.4,0.2-2.8,0-4.1c0.3-0.1,0.3,0.2,0.4,0.4
		c0.2,1.3,0.2,2.5,0,3.8c-0.1,0.9,0,1.8,0.3,2.7c0.1,0.2,0.1,0.4,0.1,0.5C24.5,45,24.6,44.4,24.3,44.2z"/>
	<path class="st0" d="M24.2,41.8c0,0.6,0,1.3,0,1.9C23.9,43.1,23.8,42.5,24.2,41.8z"/>
</g>
<g>
	<path class="st3" d="M67.1,28.7h-1.4L63,25.5h-1.5v3.2h-1.1v-8.1h2.3c0.5,0,0.9,0,1.2,0.1c0.3,0.1,0.6,0.2,0.9,0.3
		c0.3,0.2,0.5,0.4,0.7,0.7c0.2,0.3,0.2,0.6,0.2,1.1c0,0.6-0.1,1.1-0.4,1.5c-0.3,0.4-0.7,0.7-1.2,0.9L67.1,28.7z M64.6,22.9
		c0-0.2,0-0.4-0.1-0.6c-0.1-0.2-0.2-0.3-0.4-0.5c-0.2-0.1-0.3-0.2-0.6-0.2c-0.2,0-0.5-0.1-0.8-0.1h-1.3v3.1h1.1c0.3,0,0.6,0,0.9-0.1
		c0.3-0.1,0.5-0.2,0.6-0.3c0.2-0.2,0.3-0.3,0.4-0.5C64.6,23.5,64.6,23.2,64.6,22.9z"/>
	<path class="st3" d="M73.1,25.8h-4.5c0,0.4,0.1,0.7,0.2,1c0.1,0.3,0.3,0.5,0.5,0.7c0.2,0.2,0.4,0.3,0.7,0.4
		c0.3,0.1,0.5,0.1,0.9,0.1c0.4,0,0.8-0.1,1.2-0.2c0.4-0.2,0.7-0.3,0.9-0.5H73v1.1c-0.3,0.1-0.7,0.3-1.1,0.4
		c-0.4,0.1-0.7,0.1-1.1,0.1c-1,0-1.8-0.3-2.4-0.8c-0.6-0.5-0.8-1.3-0.8-2.3c0-1,0.3-1.8,0.8-2.4c0.5-0.6,1.3-0.9,2.1-0.9
		c0.8,0,1.4,0.2,1.9,0.7c0.4,0.5,0.7,1.2,0.7,2V25.8z M72.2,25c0-0.5-0.1-1-0.4-1.2c-0.3-0.3-0.7-0.4-1.2-0.4c-0.5,0-1,0.2-1.3,0.5
		s-0.5,0.7-0.6,1.2H72.2z M72.3,19.6l-1.5,2H70l1-2H72.3z"/>
	<path class="st3" d="M78,21.3L78,21.3c-0.2,0-0.3-0.1-0.5-0.1c-0.2,0-0.3-0.1-0.5-0.1c-0.4,0-0.8,0.1-1,0.3
		c-0.2,0.2-0.3,0.5-0.3,1.1v0.2h1.8v0.9h-1.8v5.2h-1v-5.2h-0.7v-0.9h0.7v-0.2c0-0.7,0.2-1.3,0.5-1.7s0.9-0.6,1.6-0.6
		c0.2,0,0.4,0,0.6,0c0.2,0,0.4,0,0.5,0.1V21.3z"/>
	<path class="st3" d="M83.7,25.8h-4.5c0,0.4,0.1,0.7,0.2,1c0.1,0.3,0.3,0.5,0.5,0.7c0.2,0.2,0.4,0.3,0.7,0.4
		c0.3,0.1,0.5,0.1,0.9,0.1c0.4,0,0.8-0.1,1.2-0.2c0.4-0.2,0.7-0.3,0.9-0.5h0.1v1.1c-0.3,0.1-0.7,0.3-1.1,0.4
		c-0.4,0.1-0.7,0.1-1.1,0.1c-1,0-1.8-0.3-2.4-0.8c-0.6-0.5-0.8-1.3-0.8-2.3c0-1,0.3-1.8,0.8-2.4c0.5-0.6,1.3-0.9,2.1-0.9
		c0.8,0,1.4,0.2,1.9,0.7c0.4,0.5,0.7,1.2,0.7,2V25.8z M82.7,25c0-0.5-0.1-1-0.4-1.2c-0.3-0.3-0.7-0.4-1.2-0.4c-0.5,0-1,0.2-1.3,0.5
		c-0.3,0.3-0.5,0.7-0.6,1.2H82.7z M82.8,19.6l-1.5,2h-0.8l1-2H82.8z"/>
	<path class="st3" d="M89,23.8L89,23.8c-0.2,0-0.4-0.1-0.5-0.1c-0.1,0-0.3,0-0.5,0c-0.3,0-0.6,0.1-0.9,0.2s-0.6,0.3-0.8,0.5v4.3h-1
		v-6.1h1v0.9c0.4-0.3,0.8-0.6,1.1-0.7c0.3-0.1,0.6-0.2,0.9-0.2c0.2,0,0.3,0,0.4,0c0.1,0,0.2,0,0.4,0.1V23.8z"/>
	<path class="st3" d="M95.1,25.8h-4.5c0,0.4,0.1,0.7,0.2,1c0.1,0.3,0.3,0.5,0.5,0.7c0.2,0.2,0.4,0.3,0.7,0.4
		c0.3,0.1,0.5,0.1,0.9,0.1c0.4,0,0.8-0.1,1.2-0.2c0.4-0.2,0.7-0.3,0.9-0.5h0.1v1.1c-0.3,0.1-0.7,0.3-1.1,0.4
		c-0.4,0.1-0.7,0.1-1.1,0.1c-1,0-1.8-0.3-2.4-0.8c-0.6-0.5-0.8-1.3-0.8-2.3c0-1,0.3-1.8,0.8-2.4c0.5-0.6,1.3-0.9,2.1-0.9
		c0.8,0,1.4,0.2,1.9,0.7c0.4,0.5,0.7,1.2,0.7,2V25.8z M94.1,25c0-0.5-0.1-1-0.4-1.2c-0.3-0.3-0.7-0.4-1.2-0.4c-0.5,0-1,0.2-1.3,0.5
		s-0.5,0.7-0.6,1.2H94.1z"/>
	<path class="st3" d="M101.7,28.7h-1v-3.5c0-0.3,0-0.5,0-0.8c0-0.2-0.1-0.4-0.2-0.6c-0.1-0.2-0.2-0.3-0.4-0.3
		c-0.2-0.1-0.4-0.1-0.7-0.1c-0.3,0-0.6,0.1-0.9,0.2c-0.3,0.1-0.6,0.3-0.9,0.5v4.5h-1v-6.1h1v0.7c0.3-0.3,0.6-0.5,1-0.6
		s0.7-0.2,1-0.2c0.7,0,1.2,0.2,1.5,0.6c0.3,0.4,0.5,1,0.5,1.7V28.7z"/>
	<path class="st3" d="M108.1,28.3c-0.1,0.1-0.2,0.1-0.4,0.2c-0.1,0.1-0.3,0.1-0.4,0.1c0,0.1,0,0.2,0,0.3c0,0.1,0,0.2,0,0.3
		c0,0.6-0.2,1-0.5,1.3c-0.3,0.3-0.8,0.5-1.3,0.5c-0.1,0-0.3,0-0.5,0c-0.2,0-0.4-0.1-0.6-0.1V30h0c0.1,0,0.2,0.1,0.4,0.1
		c0.2,0,0.3,0.1,0.5,0.1c0.4,0,0.7-0.1,0.8-0.2c0.2-0.1,0.3-0.4,0.3-0.7c0-0.1,0-0.2,0-0.2c0-0.1,0-0.2,0-0.2c-0.1,0-0.1,0-0.2,0
		c-0.1,0-0.1,0-0.2,0c-0.4,0-0.8-0.1-1.2-0.2c-0.4-0.1-0.7-0.3-0.9-0.6c-0.3-0.3-0.5-0.6-0.6-1s-0.2-0.9-0.2-1.4
		c0-1,0.3-1.8,0.8-2.3c0.5-0.6,1.3-0.8,2.2-0.8c0.3,0,0.7,0,1,0.1c0.3,0.1,0.6,0.2,0.9,0.4v1.1h-0.1c-0.3-0.2-0.6-0.4-1-0.6
		c-0.3-0.1-0.7-0.2-1-0.2c-0.6,0-1,0.2-1.4,0.6c-0.3,0.4-0.5,1-0.5,1.7c0,0.7,0.2,1.3,0.5,1.7c0.3,0.4,0.8,0.6,1.4,0.6
		c0.2,0,0.4,0,0.6-0.1c0.2-0.1,0.4-0.1,0.6-0.2c0.1-0.1,0.3-0.2,0.4-0.2s0.2-0.2,0.3-0.2h0.1V28.3z"/>
	<path class="st3" d="M114.1,28.7h-1v-0.6c-0.1,0.1-0.2,0.1-0.4,0.3c-0.2,0.1-0.3,0.2-0.4,0.3c-0.2,0.1-0.4,0.2-0.6,0.2
		c-0.2,0.1-0.5,0.1-0.8,0.1c-0.5,0-1-0.2-1.4-0.5c-0.4-0.4-0.6-0.8-0.6-1.4c0-0.5,0.1-0.8,0.3-1.1s0.5-0.5,0.8-0.7
		c0.4-0.2,0.8-0.3,1.3-0.3c0.5-0.1,1.1-0.1,1.7-0.1v-0.2c0-0.2,0-0.4-0.1-0.6c-0.1-0.2-0.2-0.3-0.4-0.4c-0.1-0.1-0.3-0.1-0.5-0.2
		c-0.2,0-0.4,0-0.6,0c-0.3,0-0.6,0-0.9,0.1c-0.3,0.1-0.7,0.2-1,0.3h-0.1v-1c0.2-0.1,0.5-0.1,0.9-0.2c0.4-0.1,0.7-0.1,1.1-0.1
		c0.4,0,0.8,0,1.1,0.1c0.3,0.1,0.6,0.2,0.8,0.4c0.2,0.2,0.4,0.4,0.5,0.6c0.1,0.3,0.2,0.6,0.2,1V28.7z M113.1,27.2v-1.7
		c-0.3,0-0.7,0-1.1,0.1c-0.4,0-0.8,0.1-1,0.2c-0.3,0.1-0.5,0.2-0.7,0.4c-0.2,0.2-0.3,0.4-0.3,0.7c0,0.3,0.1,0.6,0.3,0.8
		c0.2,0.2,0.5,0.3,1,0.3c0.4,0,0.7-0.1,1-0.2C112.6,27.6,112.9,27.4,113.1,27.2z"/>
	<path class="st3" d="M121.4,25.6c0,0.5-0.1,1-0.2,1.4c-0.1,0.4-0.3,0.7-0.6,1c-0.3,0.3-0.5,0.5-0.8,0.6s-0.6,0.2-1,0.2
		c-0.3,0-0.6,0-0.9-0.1c-0.3-0.1-0.5-0.2-0.8-0.3l-0.1,0.3h-1v-8.4h1v3c0.3-0.2,0.6-0.4,0.9-0.6c0.3-0.2,0.7-0.2,1.1-0.2
		c0.7,0,1.3,0.3,1.7,0.8C121.2,23.9,121.4,24.6,121.4,25.6z M120.4,25.7c0-0.7-0.1-1.3-0.4-1.6c-0.2-0.4-0.6-0.6-1.2-0.6
		c-0.3,0-0.6,0.1-0.9,0.2c-0.3,0.1-0.6,0.3-0.8,0.5v3.5c0.3,0.1,0.5,0.2,0.7,0.3c0.2,0.1,0.4,0.1,0.7,0.1c0.6,0,1-0.2,1.3-0.6
		C120.2,27,120.4,26.5,120.4,25.7z"/>
	<path class="st3" d="M124.1,28.7h-1v-8.4h1V28.7z"/>
	<path class="st3" d="M131.2,25.8h-4.5c0,0.4,0.1,0.7,0.2,1c0.1,0.3,0.3,0.5,0.5,0.7c0.2,0.2,0.4,0.3,0.7,0.4
		c0.3,0.1,0.5,0.1,0.9,0.1c0.4,0,0.8-0.1,1.2-0.2c0.4-0.2,0.7-0.3,0.9-0.5h0.1v1.1c-0.3,0.1-0.7,0.3-1.1,0.4
		c-0.4,0.1-0.7,0.1-1.1,0.1c-1,0-1.8-0.3-2.4-0.8c-0.6-0.5-0.8-1.3-0.8-2.3c0-1,0.3-1.8,0.8-2.4c0.5-0.6,1.3-0.9,2.1-0.9
		c0.8,0,1.4,0.2,1.9,0.7c0.4,0.5,0.7,1.2,0.7,2V25.8z M130.2,25c0-0.5-0.1-1-0.4-1.2c-0.3-0.3-0.7-0.4-1.2-0.4c-0.5,0-1,0.2-1.3,0.5
		s-0.5,0.7-0.6,1.2H130.2z"/>
</g>
</svg>
