<svg xmlns="http://www.w3.org/2000/svg" viewBox="0 0 123.7 62.1"><path d="M156.8,71.1H33.1V47.3H56.2c0-.3.1-.5.1-.8V30.4c0-.7-.2-.8-.8-.8H33.1V9H99.4V26.9c0,1.4-.2,1.3,1.2,1.3h56.1C156.8,42.4,156.8,56.7,156.8,71.1Zm-1.4-22.3H34.6V69.6H155.4ZM102.9,37.6c-.4-.7-.8-1.3-1.2-1.9a12.23,12.23,0,0,1-1.2-1.9,2.89,2.89,0,0,0-3.6-1.9c-.5.1-.7.1-.7.6V44.4c0,.4.1.6.6.6h2c.5,0,.6-.2.6-.7,0-2.1-.1-4.2-.1-6.3v-.5a37.27,37.27,0,0,1,2.3,3.7,1.36,1.36,0,0,0,2.3,0c.6-1.1,1.3-2.2,1.9-3.2.1-.2.2-.3.3-.5v6.8c0,.5.1.7.7.7h1.7c.7.1.9-.2.8-.8V31.9h-2.4a1.19,1.19,0,0,0-.9.5A59.15,59.15,0,0,1,102.9,37.6ZM46.2,18.4h.1c.7,1.2,1.4,2.3,2.1,3.5a1.36,1.36,0,0,0,2.5,0c.7-1.2,1.4-2.3,2.1-3.5a.1.1,0,0,1,.1.1v7.4h3V12.8H53.8a1,1,0,0,0-1,.5c-.8,1.5-1.8,3-2.8,4.6a1.76,1.76,0,0,1-.4.5c-1.1-1.8-2.2-3.5-3.3-5.2-.1-.2-.4-.5-.6-.5a24.3,24.3,0,0,0-2.7,0V25.1c0,.2.2.7.4.7a24.32,24.32,0,0,0,2.7,0C46.2,23.3,46.2,20.8,46.2,18.4Zm39.1,1.9c-1.8-2.4-3.5-4.7-5.2-7-.2-.2-.4-.6-.6-.6a26.13,26.13,0,0,0-2.8,0V25.2c0,.2.2.6.4.6a26.13,26.13,0,0,0,2.8,0V18.1c.3.3.4.5.6.7,1.3,1.7,2.6,3.4,3.8,5.3a3,3,0,0,0,3.4,1.7c.7-.1.9-.3.9-.9V12.8H85.5C85.3,15.3,85.3,17.7,85.3,20.3Zm-12.2-1a6.8,6.8,0,1,0-13.6.1,6.74,6.74,0,0,0,6.8,6.8A6.89,6.89,0,0,0,73.1,19.3ZM93.6,38.4a6.8,6.8,0,1,0-6.8,6.9A6.89,6.89,0,0,0,93.6,38.4ZM148.1,42h-6.4V39.7h4.9V36.9h-4.9V34.8H148V31.9c-.1,0-.1-.1-.2-.1H139c-.4,0-.5.2-.5.5v12c0,.4.1.6.5.6h8.7a.45.45,0,0,0,.4-.3Zm-70-.7c-.8-.2-1.6-.4-2.5-.7a.81.81,0,0,0-1,.3,3.65,3.65,0,0,1-5.2,0,4.06,4.06,0,0,1,.1-5.1,3.56,3.56,0,0,1,4.9-.1,1.33,1.33,0,0,0,.5.3c1-.2,2-.5,3-.8a6.79,6.79,0,1,0-6.5,10.1C74.2,45.5,77.4,43.7,78.1,41.3Zm38.2-.3c1.1-.1,2.1-.1,3.1-.2a4.35,4.35,0,0,0,3.5-6.3c-.8-1.9-2.4-2.5-4.3-2.6-1.6-.1-3.3,0-4.9,0-.5,0-.6.2-.6.7V44.4c0,.2.2.7.3.7a28,28,0,0,0,2.9,0Zm8.9-9.1v3h3.9v9.4a1.49,1.49,0,0,0,.3.7,28,28,0,0,0,2.9,0V34.9h3.9V32C132.4,31.9,128.8,31.9,125.2,31.9Z" transform="translate(-33.1 -9)" fill="#174195"/><path d="M88.1,65.6V57.9a4.38,4.38,0,0,0-.5.9c-.6,1-1.2,1.9-1.7,2.9a1.36,1.36,0,0,1-2.5,0,36.11,36.11,0,0,0-2.3-3.6v7.5H78.2V52.7h2.5c.2,0,.4.3.6.5l3,4.8a2.19,2.19,0,0,1,.3.5c.5-.9,1-1.6,1.5-2.4.6-1,1.2-2,1.8-2.9a1,1,0,0,1,.8-.4,17.63,17.63,0,0,1,2.3,0V65.7A27.15,27.15,0,0,0,88.1,65.6Z" transform="translate(-33.1 -9)" fill="#174195"/><path d="M148,52.7h3.1V65.6h-2.7c-.2,0-.4-.3-.5-.5-1.6-2.1-3.1-4.3-4.7-6.4a3.19,3.19,0,0,0-.6-.7v7.7h-3V52.8h2.6c.2,0,.4.3.6.5,1.6,2.2,3.2,4.4,4.8,6.5a7.37,7.37,0,0,0,.5.6C148,57.7,148,55.2,148,52.7Z" transform="translate(-33.1 -9)" fill="#174195"/><path d="M130.3,65.9a6.75,6.75,0,0,1,0-13.5,6.75,6.75,0,1,1,0,13.5Zm3.5-6.6c0-2.3-1.3-3.8-3.4-3.8a3.36,3.36,0,0,0-3.6,3.6,3.5,3.5,0,0,0,3.5,3.8A3.44,3.44,0,0,0,133.8,59.3Z" transform="translate(-33.1 -9)" fill="#174195"/><path d="M56,65.9a6.58,6.58,0,0,1-6.7-6.7,6.74,6.74,0,0,1,6.8-6.8A6.75,6.75,0,0,1,56,65.9Zm-3.5-6.8a3.56,3.56,0,1,0,7.1.1,3.55,3.55,0,0,0-3.5-3.8A3.44,3.44,0,0,0,52.5,59.1Z" transform="translate(-33.1 -9)" fill="#174195"/><path d="M73,60.9c.9,1.5,1.8,3,2.8,4.7H72.6c-.2,0-.4-.3-.5-.5-.6-.9-1.1-1.9-1.6-2.8-.6-1.1-.8-1.1-2.2-.8v4.1h-3v-13c2.2.1,4.4.1,6.6.4a3.63,3.63,0,0,1,3.3,3.3,4,4,0,0,1-2,4.5A.31.31,0,0,0,73,60.9Zm-4.6-2.2h2.3a1.47,1.47,0,0,0,1.5-1.5,1.53,1.53,0,0,0-1.3-1.6,20.83,20.83,0,0,0-2.5,0Z" transform="translate(-33.1 -9)" fill="#174195"/><path d="M106.1,65.6h-2.9c-.2,0-.4-.3-.5-.5-.6-1.5-.6-1.5-2.2-1.5H97.6a.78.78,0,0,0-.9.6c-.5,1.5-.5,1.5-2.1,1.5H92.8c.5-1.4,1-2.6,1.5-3.9,1.1-2.8,2.3-5.7,3.4-8.5a.87.87,0,0,1,.9-.6c.7.1,1.7-.2,2.2.1s.6,1.3.9,2c1.3,3.3,2.7,6.7,4,10.1A1.61,1.61,0,0,1,106.1,65.6Zm-6.6-9.2c-.6,1.6-1.1,3-1.6,4.5h3.2C100.6,59.4,100.1,58,99.5,56.4Z" transform="translate(-33.1 -9)" fill="#174195"/><path d="M41.9,65.6h-3V52.7H48v2.8H42.5c-.5,0-.7.1-.7.7,0,2-.1,2,1.9,2h2.8v2.7H41.8C41.9,62.5,41.9,64,41.9,65.6Z" transform="translate(-33.1 -9)" fill="#174195"/><path d="M105.2,55.5V52.7h10.9v2.8h-1.8c-.7,0-1.7-.2-2.1.2s-.1,1.3-.1,2v7.8h-3V56.3c0-.7-.2-.9-.9-.8A29.94,29.94,0,0,1,105.2,55.5Z" transform="translate(-33.1 -9)" fill="#174195"/><path d="M118,52.7h3V65.6h-3Z" transform="translate(-33.1 -9)" fill="#174195"/><path d="M69.7,19.3a3.31,3.31,0,0,1-3.4,3.6,3.42,3.42,0,0,1-3.5-3.7,3.33,3.33,0,0,1,3.5-3.6C68.4,15.6,69.7,17.1,69.7,19.3Z" transform="translate(-33.1 -9)" fill="#174195"/><path d="M83.3,38.4a3.42,3.42,0,0,1,3.5-3.7,3.26,3.26,0,0,1,3.4,3.6A3.42,3.42,0,0,1,86.7,42C84.7,42.1,83.3,40.6,83.3,38.4Z" transform="translate(-33.1 -9)" fill="#174195"/><path d="M116.3,37.9v-3a20.83,20.83,0,0,1,2.5,0,1.26,1.26,0,0,1,1.1,1.4,1.32,1.32,0,0,1-1.1,1.4A10.14,10.14,0,0,1,116.3,37.9Z" transform="translate(-33.1 -9)" fill="#174195"/></svg>