<svg xmlns="http://www.w3.org/2000/svg" viewBox="0 0 171.5 64.6"><path d="M77.6,48a6.06,6.06,0,0,1-3.7,1.2c-3.2,0-4.7-1.9-4.7-4.5a4.3,4.3,0,0,1,4.5-4.5c2.5,0,3.8,1.4,3.9,3.4l-2.3.5c-.1-.9-.4-1.5-1.5-1.5a1.77,1.77,0,0,0-1.7,2,2.09,2.09,0,0,0,2.2,2.2,3.88,3.88,0,0,0,2.3-.9Z" transform="translate(-5.5 -7.2)" fill="#003a5d"/><path d="M82.9,40.1a4.5,4.5,0,1,1-4.6,4.5,4.44,4.44,0,0,1,4.6-4.5m0,6.6a2,2,0,0,0,0-4,1.86,1.86,0,0,0-1.9,2,1.81,1.81,0,0,0,1.9,2" transform="translate(-5.5 -7.2)" fill="#003a5d"/><path d="M91.4,40.4v.9a3.62,3.62,0,0,1,2.6-1,2.66,2.66,0,0,1,2.7,1.5,3.3,3.3,0,0,1,2.9-1.4c2.2,0,3.1,1.7,3.1,3.8v2c0,.4.1.8.5.8a2.35,2.35,0,0,0,.8-.2l.1,2.2a5.58,5.58,0,0,1-2.1.4c-1.3,0-2.1-.7-2.1-2.4V44.8c0-1.1-.5-1.7-1.4-1.7a1.46,1.46,0,0,0-1.4.9v5.3H94.3V44.8c0-1.1-.5-1.7-1.4-1.7a1.66,1.66,0,0,0-1.5.9v5.2H88.7V40.6h2.7Z" transform="translate(-5.5 -7.2)" fill="#003a5d"/><path d="M105.6,52V43.3c0-.5-.1-.8-.5-.8s-.8.1-.8.2l-.1-2.2a7.07,7.07,0,0,1,2-.4,1.81,1.81,0,0,1,2,1.2,3,3,0,0,1,2.6-1.1c2.3,0,4,1.8,4,4.5s-1.6,4.4-4,4.4a3.5,3.5,0,0,1-2.4-.9V52Zm2.7-8.8v2.9a2.27,2.27,0,0,0,1.6.6,1.81,1.81,0,0,0,1.9-2,1.9,1.9,0,0,0-1.9-2.1,2.83,2.83,0,0,0-1.6.6" transform="translate(-5.5 -7.2)" fill="#003a5d"/><path d="M123.7,48a6,6,0,0,1-3.6,1.2c-3.2,0-4.7-1.9-4.7-4.5a4.3,4.3,0,0,1,4.5-4.5c2.6,0,3.8,1.6,3.8,3.6a7,7,0,0,1-.2,1.6H118a1.92,1.92,0,0,0,2.1,1.6,4.94,4.94,0,0,0,2.5-.8Zm-2.3-4.6c0-.7-.5-1.2-1.5-1.2a1.75,1.75,0,0,0-1.8,1.4h3.2l.1-.2Zm-.5-4h-2.3l1.3-2.6h2.7Z" transform="translate(-5.5 -7.2)" fill="#003a5d"/><path d="M128.4,38.2v2.2h3v2.1h-3v3c0,.9.4,1.2,1,1.2a2.83,2.83,0,0,0,1.6-.6l.8,2.1a6.73,6.73,0,0,1-3.3.9c-1.8,0-2.9-1.1-2.9-3.1V42.5h-1.5V40.4h1.5l.3-2.2Z" transform="translate(-5.5 -7.2)" fill="#003a5d"/><path d="M140.5,48a6,6,0,0,1-3.6,1.2c-3.2,0-4.7-1.9-4.7-4.5a4.3,4.3,0,0,1,4.5-4.5c2.6,0,3.8,1.6,3.8,3.6a7,7,0,0,1-.2,1.6h-5.5a1.92,1.92,0,0,0,2.1,1.6,4.94,4.94,0,0,0,2.5-.8Zm-2.4-4.6c0-.7-.5-1.2-1.5-1.2a1.75,1.75,0,0,0-1.8,1.4H138v-.2Z" transform="translate(-5.5 -7.2)" fill="#003a5d"/><path d="M144.5,40.4v.9a3.31,3.31,0,0,1,2.6-1.1c2.2,0,3.1,1.7,3.1,3.8v2c0,.4.1.8.5.8a1.88,1.88,0,0,0,.8-.2l.1,2.2a5.44,5.44,0,0,1-2,.4c-1.4,0-2.2-.7-2.2-2.4V44.6c0-1.1-.5-1.7-1.4-1.7a1.93,1.93,0,0,0-1.6,1.1v5.1h-2.7V40.5h2.8v-.1Z" transform="translate(-5.5 -7.2)" fill="#003a5d"/><path d="M160.3,48a6.06,6.06,0,0,1-3.7,1.2c-3.2,0-4.7-1.9-4.7-4.5a4.3,4.3,0,0,1,4.5-4.5c2.5,0,3.8,1.4,3.9,3.4l-2.4.5c-.1-.9-.4-1.5-1.5-1.5a1.77,1.77,0,0,0-1.7,2,2.09,2.09,0,0,0,2.2,2.2,3.88,3.88,0,0,0,2.3-.9Z" transform="translate(-5.5 -7.2)" fill="#003a5d"/><path d="M169.3,48a6,6,0,0,1-3.6,1.2c-3.2,0-4.7-1.9-4.7-4.5a4.3,4.3,0,0,1,4.5-4.5c2.6,0,3.8,1.6,3.8,3.6a7,7,0,0,1-.2,1.6h-5.5a1.92,1.92,0,0,0,2.1,1.6,4.94,4.94,0,0,0,2.5-.8Zm-2.4-4.6c0-.7-.5-1.2-1.5-1.2a1.75,1.75,0,0,0-1.8,1.4h3.2v-.2Z" transform="translate(-5.5 -7.2)" fill="#003a5d"/><path d="M176.4,43a6.32,6.32,0,0,0-2.6-.7c-.6,0-1,.2-1,.6s.2.4.7.6l1.5.4a2.24,2.24,0,0,1,2,2.4c0,1.7-1.3,2.8-3.6,2.8a8.7,8.7,0,0,1-3.4-.7l.5-2.1a6.49,6.49,0,0,0,2.7.8c.6,0,1-.1,1-.5s-.3-.4-.9-.6l-1.4-.4a2.46,2.46,0,0,1-2.1-2.5c0-1.7,1.5-2.9,3.9-2.9a9.6,9.6,0,0,1,3.2.6Z" transform="translate(-5.5 -7.2)" fill="#003a5d"/><polygon points="65.5 25 65.5 27.6 64.1 27.6 64.1 20.3 69.7 20.3 69.7 21.6 65.5 21.6 65.5 23.7 69.1 23.7 69.1 25 65.5 25" fill="#003a5d"/><path d="M76.5,27.5h3.2c1.4,0,2.9.6,2.9,2.4a2.36,2.36,0,0,1-2.1,2.3c.7.7,1.4,1.5,2.2,1.5a2.35,2.35,0,0,0,.8-.2l.1,1.2a3.5,3.5,0,0,1-1.2.3c-1.6,0-2.8-2.1-3.7-2.7H78v2.6H76.5ZM78,28.8V31h1.9a1.1,1.1,0,1,0,0-2.2Z" transform="translate(-5.5 -7.2)" fill="#003a5d"/><path d="M86.8,27.5h1.8l2.8,7.3H89.9l-.6-1.5H86l-.6,1.5H83.9Zm-.5,4.7h2.6L87.7,29Z" transform="translate(-5.5 -7.2)" fill="#003a5d"/><polygon points="88.3 22.7 88.3 27.6 86.8 27.6 86.8 20.3 88.1 20.3 92.2 25.2 92.2 20.3 93.7 20.3 93.7 27.6 92.4 27.6 88.3 22.7" fill="#003a5d"/><path d="M107.3,33.7a4.81,4.81,0,0,1-3,1.2,3.54,3.54,0,0,1-3.8-3.7,3.57,3.57,0,0,1,3.8-3.8,2.73,2.73,0,0,1,3,2.8l-1.4.3a1.5,1.5,0,0,0-1.6-1.7,2.16,2.16,0,0,0-2.2,2.4,2.08,2.08,0,0,0,2.2,2.3,3.64,3.64,0,0,0,2.3-.9Z" transform="translate(-5.5 -7.2)" fill="#003a5d"/><polygon points="103.1 27.6 103.1 20.3 108.9 20.3 108.9 21.6 104.5 21.6 104.5 23.2 108.1 23.2 108.1 24.5 104.5 24.5 104.5 26.3 108.9 26.3 108.9 27.6 103.1 27.6" fill="#003a5d"/><polygon points="32.8 8.4 32.8 2.8 27.9 0 23.1 2.8 23.1 8.4 27.9 11.3 32.8 8.4" fill="#0083c2"/><polygon points="30.4 20.3 30.4 17.5 27.9 16.2 25.5 17.5 25.5 20.3 27.9 21.8 30.4 20.3" fill="#0083c2"/><polygon points="32.8 35.1 32.8 29.5 27.9 26.7 23.1 29.5 23.1 35.1 27.9 37.9 32.8 35.1" fill="#0083c2"/><polygon points="30.4 47 30.4 44.2 27.9 42.8 25.5 44.2 25.5 47 27.9 48.4 30.4 47" fill="#0083c2"/><polygon points="23.1 2.8 23.1 8.4 27.9 11.3 32.8 8.4 32.8 2.8 27.9 0 23.1 2.8" fill="#0083c2"/><polygon points="23.1 56.1 23.1 61.8 27.9 64.6 32.8 61.8 32.8 56.1 27.9 53.3 23.1 56.1" fill="#0083c2"/><polygon points="46.2 16.2 46.2 21.8 51.1 24.6 55.9 21.8 55.9 16.2 51.1 13.3 46.2 16.2" fill="#0083c2"/><polygon points="46.2 29.5 46.2 35.1 51.1 37.9 55.9 35.1 55.9 29.5 51.1 26.7 46.2 29.5" fill="#0083c2"/><polygon points="2.5 30.8 2.5 33.7 4.9 35.1 7.3 33.7 7.3 30.8 4.9 29.5 2.5 30.8" fill="#0083c2"/><polygon points="0 16.2 0 21.8 4.9 24.6 9.8 21.8 9.8 16.2 4.9 13.3 0 16.2" fill="#0083c2"/><polygon points="46.2 42.8 46.2 48.4 51.1 51.2 55.9 48.4 55.9 42.8 51.1 40 46.2 42.8" fill="#0083c2"/><polygon points="1.1 43.5 1.1 47.8 4.9 49.9 8.6 47.8 8.6 43.5 4.9 41.3 1.1 43.5" fill="#0083c2"/><polygon points="34.6 9.5 34.6 15.1 39.5 17.9 44.4 15.1 44.4 9.5 39.5 6.7 34.6 9.5" fill="#0083c2"/><polygon points="13.9 10.9 13.9 13.7 16.4 15.1 18.8 13.7 18.8 10.9 16.4 9.5 13.9 10.9" fill="#0083c2"/><polygon points="13.9 24.2 13.9 27 16.4 28.4 18.8 27 18.8 24.2 16.4 22.8 13.9 24.2" fill="#0083c2"/><polygon points="12.7 36.8 12.7 41.1 16.4 43.2 20.1 41.1 20.1 36.8 16.4 34.7 12.7 36.8" fill="#0083c2"/><polygon points="34.6 22.8 34.6 28.4 39.5 31.3 44.4 28.4 44.4 22.8 39.5 20 34.6 22.8" fill="#0083c2"/><polygon points="37.1 37.5 37.1 40.4 39.5 41.8 41.9 40.4 41.9 37.5 39.5 36.1 37.1 37.5" fill="#0083c2"/><polygon points="37.1 50.9 37.1 53.7 39.5 55.1 41.9 53.7 41.9 50.9 39.5 49.4 37.1 50.9" fill="#0083c2"/><polygon points="13.9 50.9 13.9 53.7 16.4 55.1 18.8 53.7 18.8 50.9 16.4 49.4 13.9 50.9" fill="#0083c2"/><polygon points="39.5 31.3 39.5 25.6 44.4 22.8 44.4 28.4 39.5 31.3" fill="#003a5d"/><polygon points="27.9 64.6 27.9 58.9 32.8 56.1 32.8 61.8 27.9 64.6" fill="#003a5d"/><polygon points="4.9 24.6 4.9 18.9 9.8 16.2 9.8 21.8 4.9 24.6" fill="#003a5d"/><polygon points="1.1 43.5 4.9 45.6 8.6 43.5 4.9 41.3 1.1 43.5" fill="#00b5e5"/><polygon points="46.2 42.8 51.1 45.6 55.9 42.8 51.1 40 46.2 42.8" fill="#00b5e5"/><polygon points="23.1 29.5 27.9 32.3 32.8 29.5 27.9 26.7 23.1 29.5" fill="#00b5e5"/><polygon points="34.6 9.5 39.5 12.3 44.4 9.5 39.5 6.7 34.6 9.5" fill="#00b5e5"/></svg>