<?xml version="1.0" encoding="utf-8"?>
<!-- Generator: Adobe Illustrator 25.0.0, SVG Export Plug-In . SVG Version: 6.00 Build 0)  -->
<svg version="1.1" id="Calque_1" xmlns="http://www.w3.org/2000/svg" xmlns:xlink="http://www.w3.org/1999/xlink" x="0px" y="0px"
	 viewBox="0 0 48 48" style="enable-background:new 0 0 48 48;" xml:space="preserve" fill="#fe4040" width="25px">
<path class="st0" d="M43.3,3c-0.2,0-0.3,0.1-0.4,0.1l-5.5,2.7c-1,0.5-1.7,1.5-1.9,2.6c-0.1,0.6,0,1.2,0.2,1.8l-3.2,3.2
	c-5.3-4.6-11.3-5.4-16-5.6c-2.5-0.1-4.7-0.1-6.2-0.3C9.5,7.4,8.9,7.2,8.6,6.9S8.1,6.5,7.9,6C7.7,5.4,7.1,5,6.4,5C5.6,5,5,5.7,5,6.5
	C5,6.7,5,6.8,5.1,7c0.3,1,1,1.9,1.9,2.5c0,0,0.1,0,0.1,0.1l1.9,23.5l-4.5,4.5c-0.4,0.4-0.6,1.1-0.3,1.6C4.3,39.6,4.9,40,5.5,40H8
	v2.5c0,0.6,0.4,1.2,0.9,1.4C9.1,44,9.3,44,9.5,44c0.4,0,0.8-0.2,1.1-0.4l4.5-4.5l23.5,1.9c0,0,0,0.1,0.1,0.1
	c0.6,0.8,1.4,1.5,2.5,1.8c0.8,0.3,1.6-0.1,1.9-0.9c0.3-0.8-0.1-1.6-0.9-1.9c0,0-0.1,0-0.1,0c-0.5-0.2-0.7-0.3-0.9-0.7
	c-0.2-0.3-0.4-0.9-0.6-1.6c-0.3-1.5-0.2-3.7-0.3-6.2c-0.2-4.7-1-10.7-5.6-16l3.2-3.2c0.4,0.1,0.8,0.2,1.2,0.2c0.2,0,0.4,0,0.6,0
	c1.1-0.2,2.1-0.9,2.6-1.9l0,0l2.7-5.5c0.3-0.6,0.2-1.3-0.3-1.7C44.2,3.1,43.7,2.9,43.3,3z M10.2,10.5c0.1,0,0.2,0,0.3,0
	c0.2,0.1,0.4,0.1,0.6,0.1c1.7,0,4.4,1,7.3,2.9c2.5,1.6,5.2,3.8,7.8,6.2L13.9,32h-2L10.2,10.5z M20.3,11.2c3.3,0.5,6.8,1.6,10,4.4
	l-2,2C25.7,15.1,23,12.9,20.3,11.2z M32.5,17.7c2.8,3.2,3.9,6.7,4.4,10c-1.7-2.7-3.9-5.4-6.4-8L32.5,17.7z M28.3,21.8
	c2.4,2.6,4.6,5.3,6.2,7.8c1.8,2.9,2.9,5.6,2.9,7.3c0,0.2,0,0.4,0.1,0.6c0,0.1,0,0.2,0,0.3L16,36.1v-2L28.3,21.8z"/>
</svg>
