<svg width="50px" height="48px" xmlns="http://www.w3.org/2000/svg" viewBox="0 0 48 46"><path d="M25,2A21,21,0,0,0,4,23V41.5l.41.31a37.34,37.34,0,0,0,41.18,0L46,41.5V23A21,21,0,0,0,25,2Zm0,10c11.92,0,16,6,16,11v6.19q0,.36,0,.72a3.21,3.21,0,0,1-.66.9A3.94,3.94,0,0,1,37.22,32h-5.5a2,2,0,1,0,0,2h5.5a6.63,6.63,0,0,0,2.4-.44C37.31,36.91,32.15,39,25,39c-9.91,0-16-4-16-9.81V23C9,18,13.08,12,25,12ZM3,22a2,2,0,0,0-2,2v6a2,2,0,0,0,2,2Zm44,0V32a2,2,0,0,0,2-2V24A2,2,0,0,0,47,22Z" transform="translate(-1 -2)" fill="#fe4040"/></svg>
