<svg xmlns="http://www.w3.org/2000/svg" viewBox="0 0 18.98 18.99" width="19px"><path d="M11.17,3A9.24,9.24,0,0,0,2,12.31a13.72,13.72,0,0,0,.55,4.12,1,1,0,0,0,.64.7l13.64,4.81a1,1,0,0,0,.33.06,1,1,0,0,0,.78-.37l2.48-2.92a.5.5,0,0,0-.34-.81,21,21,0,0,1-10.54-5,2,2,0,0,1-1.47-2.46,2.06,2.06,0,0,1,2-1.48H19a.5.5,0,0,0,.45-.71A9.25,9.25,0,0,0,11.17,3Zm8.51,8H12a2,2,0,0,1-.34,1.12A19,19,0,0,0,20.42,16a.51.51,0,0,0,.56-.56c-.08-.63-.61-3.09-.82-4.06A.48.48,0,0,0,19.68,11Z" transform="translate(-2 -3.01)" fill="#fff"/></svg>
