<svg height="18px" width="18px" xmlns="http://www.w3.org/2000/svg" xmlns:xlink="http://www.w3.org/1999/xlink" viewBox="0 0 24 24"><defs><linearGradient id="a" x1="52" y1="-0.11" x2="52" y2="36.06" gradientTransform="matrix(1, 0, 0, -1, 0, 63.89)" gradientUnits="userSpaceOnUse"><stop offset="0" stop-color="#31995f"/><stop offset="0.09" stop-color="#329e62"/><stop offset="0.67" stop-color="#39ba71"/><stop offset="1" stop-color="#3bc477"/></linearGradient></defs><path d="M52,40A12,12,0,1,0,64,52,12,12,0,0,0,52,40Z" transform="translate(-40 -40)" fill="url(#a)"/><path d="M60,49a2,2,0,0,1-.58,1.41L53.83,56l-1.42,1.41a2,2,0,0,1-2.82,0L48.17,56l-2.59-2.59a2,2,0,0,1,2.83-2.83L51,53.17l5.59-5.59A2,2,0,0,1,60,49Z" transform="translate(-40 -40)" fill="#fff"/></svg>
