<svg xmlns="http://www.w3.org/2000/svg" viewBox="0 0 40 40"><path d="M35,2A11,11,0,1,0,46,13,11,11,0,0,0,35,2ZM12.5,6A6.51,6.51,0,0,0,6,12.5v23A6.51,6.51,0,0,0,12.5,42h23A6.51,6.51,0,0,0,42,35.5V26H30.86a1.49,1.49,0,0,0-1.49,1.32A5.25,5.25,0,0,1,24,32a5.25,5.25,0,0,1-5.37-4.68A1.49,1.49,0,0,0,17.14,26H9V12.5A3.5,3.5,0,0,1,12.5,9H22.63a12.51,12.51,0,0,1,1.42-3ZM41,8a1,1,0,0,1,.71.29,1,1,0,0,1,0,1.42l-8,8a1,1,0,0,1-1.42,0l-4-4a1,1,0,0,1,1.42-1.42L33,15.59l7.29-7.3A1,1,0,0,1,41,8Z" transform="translate(-6 -2)" fill="#fff"/></svg>