<svg width="20px" fill="#000000" xmlns="http://www.w3.org/2000/svg" viewBox="0 0 46 32"><path d="M7,9a5,5,0,0,0-5,5V36a5,5,0,0,0,5,5H43a5,5,0,0,0,5-5V14a5,5,0,0,0-5-5Zm0,2H43a3,3,0,0,1,3,3V36a3,3,0,0,1-3,3H7a3,3,0,0,1-3-3V14A3,3,0,0,1,7,11Zm21.84,5a1,1,0,0,0-.75.56l-8,16a1,1,0,1,0,1.82.88l8-16a1,1,0,0,0-.09-1.05A1,1,0,0,0,28.84,16ZM20,17a3,3,0,0,0-3,3v1a3,3,0,0,0,6,0V20A3,3,0,0,0,20,17Zm0,2a1,1,0,0,1,1,1v1a1,1,0,0,1-2,0V20A1,1,0,0,1,20,19Zm10,7a3,3,0,0,0-3,3v1a3,3,0,0,0,6,0V29A3,3,0,0,0,30,26Zm0,2a1,1,0,0,1,1,1v1a1,1,0,0,1-2,0V29A1,1,0,0,1,30,28Z" transform="translate(-2 -9)" /></svg>
