<svg height="35px" xmlns="http://www.w3.org/2000/svg" viewBox="0 0 41.95 39"><path d="M30.5,5A4.5,4.5,0,1,0,35,9.5,4.51,4.51,0,0,0,30.5,5ZM16.56,15h-.07a2.3,2.3,0,0,0-1.7.67.27.27,0,0,0-.12.09L8.75,21.72l0,.05A2.49,2.49,0,0,0,10.44,26a2.53,2.53,0,0,0,2-.92l0,0,5-5,4.5.57L18.34,30a.09.09,0,0,0,0,.05,4.45,4.45,0,0,0,2.74,5.91,1.93,1.93,0,0,0,.69.07H33.13L42,37.85A3.09,3.09,0,0,0,43,38a3,3,0,0,0,.95-5.85h0l-9.4-2A5.6,5.6,0,0,0,33.36,30H27.68l3.17-9.53a.25.25,0,0,0,0-.12,3.38,3.38,0,0,0,.05-1.67A3.26,3.26,0,0,0,28.67,16l-2.85-1a.47.47,0,0,0-.17,0ZM42.44,17a2.46,2.46,0,0,0-1.39.46L36.43,20.7l-3.51-2.13a5.26,5.26,0,0,1-.08,2.16,2.83,2.83,0,0,1-.09.37l-.84,2.52,3.64,2.06.08,0A2.56,2.56,0,0,0,36.8,26a2.42,2.42,0,0,0,1.44-.46L44,21.48A2.51,2.51,0,0,0,44.54,18,2.51,2.51,0,0,0,42.44,17ZM16.71,34.65,14.47,38H7a3,3,0,0,0,0,6h8.43a4.5,4.5,0,0,0,3.66-1.88L22.26,38h-.67a3.6,3.6,0,0,1-1.16-.17A6.51,6.51,0,0,1,16.71,34.65Z" transform="translate(-4 -5)" fill="#2a90c0"/></svg>
