<?xml version="1.0" encoding="UTF-8"?>
<svg width="40px" height="40px" viewBox="0 0 50 50" version="1.1" xmlns="http://www.w3.org/2000/svg" xmlns:xlink="http://www.w3.org/1999/xlink">
    <!-- Generator: Sketch 59.1 (86144) - https://sketch.com -->
    <title>icons8-diploma</title>
    <desc>Created with Sketch.</desc>
    <g id="icons8-diploma" stroke="none" stroke-width="1" fill="none" fill-rule="evenodd">
        <polyline id="Stroke-1" stroke="white" stroke-width="2" stroke-linejoin="round" points="33 41 49 41 49 1 1 1 1 41 17 41"></polyline>
        <path d="M40,20 L10,20 M40,15 L10,15 M40,10 L10,10" id="Stroke-2" stroke="white" stroke-width="2"></path>
        <path d="M32,30.898 C31.801,30 31.199,29.398 30.301,29.199 C30.199,29.102 30.199,29 30.102,28.898 C30.398,28.102 30.199,27.199 29.5,26.602 C28.801,26 27.898,26 27.102,26.398 C27,26.398 26.898,26.301 26.801,26.301 C26.5,25.5 25.801,24.898 24.898,24.898 C24,24.898 23.199,25.5 23,26.301 C22.898,26.301 22.801,26.301 22.699,26.398 C22,25.898 21,26 20.301,26.602 C19.602,27.199 19.398,28.102 19.699,28.898 C19.602,29 19.602,29.102 19.5,29.199 C18.602,29.301 18,30 17.801,30.898 C17.699,31.699 18.102,32.602 18.801,33 C18.801,33.102 18.801,33.301 18.801,33.398 C18.301,34.102 18.199,35 18.602,35.699 C19,36.398 19.801,36.801 20.602,36.699 C20.699,36.801 20.801,36.898 20.898,37 C20.898,37.801 21.398,38.602 22.199,38.898 C23,39.199 23.801,38.898 24.398,38.301 C24.5,38.301 24.602,38.301 24.602,38.301 C24.699,38.301 24.801,38.301 24.898,38.301 C25.301,38.699 25.801,39 26.398,39 C26.602,39 26.898,39 27.102,38.898 C27.898,38.602 28.398,37.898 28.398,37 C28.5,36.898 28.602,36.801 28.699,36.699 C29.5,36.801 30.301,36.398 30.801,35.699 C31.199,35 31.102,34.102 30.602,33.398 C30.602,33.301 30.602,33.102 30.602,33 C31.699,32.602 32.102,31.801 32,30.898 Z" id="Stroke-3" stroke="white" stroke-width="2" stroke-linejoin="round"></path>
        <polyline id="Stroke-4" stroke="white" stroke-width="2" stroke-linejoin="round" points="20 36 20 49 25 46 30 49 30 36"></polyline>
    </g>
</svg>
