<svg width="18px" id="Calque_1" data-name="Calque 1" xmlns="http://www.w3.org/2000/svg" viewBox="0 0 42 42"><path d="M14,4A10,10,0,0,0,4,14V36A10,10,0,0,0,14,46H36A10,10,0,0,0,46,36V14A10,10,0,0,0,36,4ZM13,16H37a1.7,1.7,0,0,1,.51.07l-9.83,9.82a3.8,3.8,0,0,1-5.37,0l-9.82-9.82A1.7,1.7,0,0,1,13,16Zm-1.93,1.49L18.59,25l-7.52,7.51A1.7,1.7,0,0,1,11,32V18A1.7,1.7,0,0,1,11.07,17.49Zm27.86,0A1.7,1.7,0,0,1,39,18V32a1.7,1.7,0,0,1-.07.51L31.4,25ZM20,26.41l.89.9a5.82,5.82,0,0,0,8.2,0l.9-.9,7.52,7.52A1.7,1.7,0,0,1,37,34H13a1.7,1.7,0,0,1-.51-.07Z" transform="translate(-4 -4)" style="fill:#fff"/></svg>
