<svg version="1.1" id="Calque_1" xmlns="http://www.w3.org/2000/svg" xmlns:xlink="http://www.w3.org/1999/xlink" x="0px" y="0px"
	 viewBox="0 0 32 32" style="enable-background:new 0 0 32 32;" xml:space="preserve" width="24px">
<path fill="white" d="M14.7,3l-0.3,0.3L7.6,10H2v16h16.8c1.4,0,2.6-1,2.9-2.4l1.7-7.6H27c1.6,0,3-1.4,3-3s-1.4-3-3-3H16.2l0.2-0.8
	c0.2-0.2,0.3-0.2,0.6-0.6C17.5,8,18,7,18,5.7C18,4.2,16.7,3,15.1,3H14.7z M15.4,5.1C15.8,5.2,16,5.3,16,5.7c0,0.9-0.3,1.5-0.5,1.8
	C15.2,7.8,15,7.9,15,7.9l-0.3,0.2l-0.1,0.4L14,10.8L13.7,12H27c0.6,0,1,0.4,1,1s-0.4,1-1,1h-5.2l-0.2,0.8l-1.8,8.4
	c-0.1,0.5-0.5,0.8-1,0.8H9V11.4L15.4,5.1z M4,12h3v12H4V12z"/>
</svg>
