<?xml version="1.0" encoding="utf-8"?>
<!-- Generator: Adobe Illustrator 25.0.0, SVG Export Plug-In . SVG Version: 6.00 Build 0)  -->
<svg version="1.1" id="Calque_1" xmlns="http://www.w3.org/2000/svg" xmlns:xlink="http://www.w3.org/1999/xlink" x="0px" y="0px"
	 viewBox="0 0 30 30" style="enable-background:new 0 0 30 30;" xml:space="preserve">
<style type="text/css">
	.st0{fill:#FFFFFF;}
</style>
<path class="st0" d="M15,2c-0.6,0-1,0.4-1,1s0.4,1,1,1s1-0.4,1-1S15.6,2,15,2z M10,3C9.4,3,9,3.4,9,4s0.4,1,1,1s1-0.4,1-1
	S10.6,3,10,3z M20,3c-0.6,0-1,0.4-1,1s0.4,1,1,1s1-0.4,1-1S20.6,3,20,3z M5,7C3.9,7,3,7.9,3,9v3.6l-1.7,1.7c-0.4,0.4-0.4,1,0,1.4
	L3,17.4V21c0,1.1,0.9,2,2,2h20c1.1,0,2-0.9,2-2V9c0-1.1-0.9-2-2-2H5z M8,12h14c0.6,0,1,0.4,1,1s-0.4,1-1,1H8c-0.6,0-1-0.4-1-1
	S7.4,12,8,12z M8,16h8c0.6,0,1,0.4,1,1s-0.4,1-1,1H8c-0.6,0-1-0.4-1-1S7.4,16,8,16z M10,25c-0.6,0-1,0.4-1,1s0.4,1,1,1s1-0.4,1-1
	S10.6,25,10,25z M20,25c-0.6,0-1,0.4-1,1s0.4,1,1,1s1-0.4,1-1S20.6,25,20,25z M15,26c-0.6,0-1,0.4-1,1s0.4,1,1,1s1-0.4,1-1
	S15.6,26,15,26z"/>
</svg>
