<svg xmlns="http://www.w3.org/2000/svg" viewBox="0 0 22 21"><path d="M10,3A1,1,0,0,0,9,4H4A2,2,0,0,0,2,6v6a2,2,0,0,0,2,2h9.78A3,3,0,0,1,16,13h.76l.12-.12a3,3,0,0,1,4.24,0l.12.12h.48A2,2,0,0,0,22,12V6a2,2,0,0,0-2-2H15a1,1,0,0,0-1-1Zm2,7a1,1,0,1,1-1,1A1,1,0,0,1,12,10Zm7,4a1,1,0,0,0-.71.29l-.7.71H16a1,1,0,0,0-1,1v1.59l-.71.7a1,1,0,0,0,0,1.42l.71.7V22a1,1,0,0,0,1,1h1.59l.7.71a1,1,0,0,0,1.42,0l.7-.71H22a1,1,0,0,0,1-1V20.41l.71-.7a1,1,0,0,0,0-1.42l-.71-.7V16a1,1,0,0,0-1-1H20.41l-.7-.71A1,1,0,0,0,19,14ZM2,15.44V18a2,2,0,0,0,2,2h8.18A3.05,3.05,0,0,1,12,19a3,3,0,0,1,.88-2.12l.12-.12V16H4A3.91,3.91,0,0,1,2,15.44Z" transform="translate(-2 -3)" fill="#fff"/></svg>