<svg height="35px" xmlns="http://www.w3.org/2000/svg" viewBox="0 0 24.03 23.01"><path d="M12,0a1,1,0,0,0-1,1V2a1,1,0,0,0,2,0V1a1,1,0,0,0-1-1ZM4.21,3.21a1,1,0,0,0-1,1,1,1,0,0,0,.31.72l.7.71A1,1,0,0,0,5.67,4.25l0,0-.71-.7A1,1,0,0,0,4.21,3.21Zm15.55,0a1,1,0,0,0-.69.31l-.71.7a1,1,0,1,0,1.39,1.45l0,0,.7-.71a1,1,0,0,0,0-1.41A1,1,0,0,0,19.76,3.21ZM12,5A7,7,0,0,0,9,18.31V21a2,2,0,0,0,2,2h2a2,2,0,0,0,2-2V18.31A7,7,0,0,0,12,5ZM1,11a1,1,0,0,0,0,2H2a1,1,0,0,0,0-2H1Zm21,0a1,1,0,0,0,0,2h1a1,1,0,0,0,0-2H22ZM4.91,18.06a1,1,0,0,0-.69.3l-.7.71A1,1,0,0,0,4.9,20.51l0,0,.71-.7a1,1,0,0,0-.73-1.72Zm14.15,0a1,1,0,0,0-1,1,1,1,0,0,0,.3.72l.71.7a1,1,0,0,0,1.44-1.38l0,0-.7-.71A1,1,0,0,0,19.06,18.06Z" transform="translate(0.01 0.01)" fill="white"/></svg>
