<svg width="15px" fill="#7f7f7f" xmlns="http://www.w3.org/2000/svg" viewBox="0 0 50.06 38"><path d="M27,6c-4.27,0-7.55,1.76-9.37,4.34a9.26,9.26,0,0,0-1,1.91L16,11h-.62C11.89,11,9.31,12.41,8,14.5a7.47,7.47,0,0,0-.54,6.55,2.46,2.46,0,0,0-.49,1.83,4.2,4.2,0,0,0,.72,2.06c.16.22.41.23.61.36a8.33,8.33,0,0,0,.63,2.07,8.16,8.16,0,0,0,.57,1c.07.09.18.15.25.23,0,.8,0,1.49,0,2.31a2.82,2.82,0,0,1-1.47,1.29c-.87.44-2,.84-3.21,1.36a10,10,0,0,0-3.36,2.18A6.09,6.09,0,0,0,0,40v1H7.23A9.07,9.07,0,0,0,7,43v1H43V43a9.07,9.07,0,0,0-.23-2h7.29L50,39.94a6.47,6.47,0,0,0-1.84-4.25,10.63,10.63,0,0,0-3.46-2.15c-1.2-.51-2.37-.9-3.24-1.34A2.73,2.73,0,0,1,40,30.94V28.69c.07-.08.17-.14.25-.22a8.14,8.14,0,0,0,.67-1,7.19,7.19,0,0,0,.75-2.06,1.36,1.36,0,0,0,.45-.34A3.77,3.77,0,0,0,43.05,23a2.53,2.53,0,0,0-.46-1.8,5.12,5.12,0,0,0,.52-1.56,9,9,0,0,0-.23-3,6.06,6.06,0,0,0-1.54-2.81,4.57,4.57,0,0,0-2.58-1.16L38,11h-.65a13.94,13.94,0,0,0-4.31.64,6.87,6.87,0,0,0-1.35-2.06,5.18,5.18,0,0,0-3-1.44L27.62,6Zm-.59,2.06,1,1.94H28a3,3,0,0,1,2.28,1,6,6,0,0,1,1.35,2.53,9.34,9.34,0,0,1,.33,3,4.09,4.09,0,0,1-.48,1.85l-.55.71.64.62a1.59,1.59,0,0,1,.4,1,2.44,2.44,0,0,1-.61,1.47c-.24.26-.35.29-.35.29l-.55.22-.07.6a7.24,7.24,0,0,1-.89,2.48,8.26,8.26,0,0,1-.66,1c-.2.24-.42.4-.31.34L28,27.4v3.16a9.43,9.43,0,0,1-.8.61A4.54,4.54,0,0,1,25,32a4.54,4.54,0,0,1-2.2-.83,9.43,9.43,0,0,1-.8-.61V27.4l-.53-.28c.11.06-.11-.1-.31-.34a8.26,8.26,0,0,1-.66-1,7.24,7.24,0,0,1-.89-2.48l-.07-.6L19,22.48s-.11,0-.35-.29A2.44,2.44,0,0,1,18,20.72h0a1.59,1.59,0,0,1,.4-1l.5-.48-.29-.64a7.07,7.07,0,0,1,.63-7.06C20.61,9.59,23,8.21,26.41,8.06Zm10.36,5,.63,1.43h.65a2.48,2.48,0,0,1,1.89.72,4.09,4.09,0,0,1,1,1.88,6.88,6.88,0,0,1,.17,2.28,3.39,3.39,0,0,1-.38,1.37l-.53.71.62.61a1.08,1.08,0,0,1,.24.62,1.69,1.69,0,0,1-.41,1c-.15.16-.18.16-.18.16l-.54.23-.07.59a4.87,4.87,0,0,1-.66,1.75,4.41,4.41,0,0,1-.49.7c-.14.18-.3.27-.18.21l-.53.28V30.2a3.38,3.38,0,0,1-2,.8H35v2.9c-1-.44-2-.86-2.84-1.28A4.44,4.44,0,0,1,30,30.74V28.39a4.57,4.57,0,0,0,.41-.37,10,10,0,0,0,.83-1.25,9.39,9.39,0,0,0,1-2.77,1.88,1.88,0,0,0,.61-.45A4.5,4.5,0,0,0,34,21a3,3,0,0,0-.53-2.12A6.35,6.35,0,0,0,34,16.62a11,11,0,0,0-.27-3.08A12.65,12.65,0,0,1,36.77,13.11Zm-22,0,.63,1.29h.65a9.57,9.57,0,0,0,.55,4.37A2.85,2.85,0,0,0,16.05,21a4.5,4.5,0,0,0,1.13,2.59,1.69,1.69,0,0,0,.61.45,9.39,9.39,0,0,0,1,2.77A10,10,0,0,0,19.59,28a4.57,4.57,0,0,0,.41.37v2.35a4.44,4.44,0,0,1-2.16,1.88c-.81.43-1.81.85-2.84,1.29V31H14a3.42,3.42,0,0,1-2.31-.8c0-.68,0-1.31,0-2v-.6l-.52-.28c.15.08,0,0-.1-.15a4.08,4.08,0,0,1-.4-.69,6.23,6.23,0,0,1-.57-1.83L10,23.83l-.76-.06,0,0a2.41,2.41,0,0,1-.32-1.08A.65.65,0,0,1,9,22.12l.69-.43-.35-.78a5.62,5.62,0,0,1,.27-5.32C10.52,14.22,12.24,13.27,14.81,13.11Zm-3.6,19.14a5.86,5.86,0,0,0,2.06.69l-.16,1.82c-.49.23-1,.49-1.43.76l-1.26-2.41A4.3,4.3,0,0,0,11.21,32.25Zm27.24.07a3.1,3.1,0,0,0,.53.61l-.84,2.47c-.42-.23-.83-.45-1.25-.65l-.16-1.81A5.36,5.36,0,0,0,38.45,32.32Zm-17.18.18a5.36,5.36,0,0,0,.43.33,7,7,0,0,0,2.13,1L23.09,42h-.41a32.61,32.61,0,0,1-2.21-8.71A5,5,0,0,0,21.27,32.5Zm7.46,0a5,5,0,0,0,.8.79A32.61,32.61,0,0,1,27.32,42h-.41l-.74-8.17a7,7,0,0,0,2.13-1A5.36,5.36,0,0,0,28.73,32.5Zm12,1.55c1,.5,2.15.88,3.21,1.33a8.81,8.81,0,0,1,2.82,1.73,4.17,4.17,0,0,1,1,1.89H42a7.55,7.55,0,0,0-1.07-1.48,9.77,9.77,0,0,0-1.06-1Zm-32,.08L10,36.66a8.48,8.48,0,0,0-.93.87A7.44,7.44,0,0,0,8,39H2.17a3.83,3.83,0,0,1,.9-1.91,8.2,8.2,0,0,1,2.7-1.72C6.73,35,7.74,34.58,8.7,34.13Zm22.76.37c1.33.67,2.81,1.22,4.21,1.88a11.86,11.86,0,0,1,3.79,2.5A5.64,5.64,0,0,1,40.83,42H29.48A33.49,33.49,0,0,0,31.46,34.5Zm-12.92,0a33.49,33.49,0,0,0,2,7.5H9.18a5.56,5.56,0,0,1,1.36-3.11,12.08,12.08,0,0,1,3.79-2.5C15.73,35.73,17.21,35.17,18.54,34.5Z" transform="translate(0 -6)"/></svg>
