<svg width="15px" fill="#7f7f7f" xmlns="http://www.w3.org/2000/svg" viewBox="0 0 46 46"><path d="M18,2a5,5,0,0,0,0,10,4.93,4.93,0,0,0,1.17-.15L20,13.62A11.94,11.94,0,0,0,14.47,27.3l-3.27,1A5,5,0,1,0,12,31a5.55,5.55,0,0,0-.07-.82l3.26-1a12.06,12.06,0,0,0,7.9,6.46L22.79,38a5,5,0,1,0,2,.33l.3-2.39c.31,0,.62,0,.94,0a12,12,0,0,0,8.56-3.61l4,3.31A5,5,0,1,0,43,33a4.9,4.9,0,0,0-3.14,1.15l-4-3.3a11.94,11.94,0,0,0-.69-14.59l3.1-3.1A4.93,4.93,0,0,0,41,14a5,5,0,1,0-5-5,4.93,4.93,0,0,0,.84,2.75l-3.1,3.1a11.87,11.87,0,0,0-11.92-2.08L21,11a5,5,0,0,0,2-4A5,5,0,0,0,18,2Zm0,2a3,3,0,1,1-3,3A3,3,0,0,1,18,4ZM41,6a3,3,0,1,1-3,3A3,3,0,0,1,41,6ZM26,14a10,10,0,0,1,7.44,16.67,8.62,8.62,0,0,0-2.73-1.22A9.84,9.84,0,0,1,29.36,29a.77.77,0,0,1-.36-.28V27.62s.09-.08.12-.12a5.26,5.26,0,0,0,.39-.71,7,7,0,0,0,.34-1.18c.11-.08.28-.07.39-.18a2.77,2.77,0,0,0,.74-1.5h0a2.5,2.5,0,0,0-.06-1.1c0-.08-.15-.15-.18-.23A8.32,8.32,0,0,0,31,20.49a4.29,4.29,0,0,0-.62-2.28,3.17,3.17,0,0,0-2.11-1.36,2.63,2.63,0,0,0-.7-.6A4.53,4.53,0,0,0,26,16a5.22,5.22,0,0,0-3.74,1.31A4.51,4.51,0,0,0,21,20.63a9.77,9.77,0,0,0,.24,2c0,.07-.15.13-.17.21a3,3,0,0,0,.68,2.64c.12.12.29.1.41.18a6,6,0,0,0,.33,1.16,5.26,5.26,0,0,0,.39.71s.1.08.12.12v1.06a.77.77,0,0,1-.36.28,9.84,9.84,0,0,1-1.35.49,8.62,8.62,0,0,0-2.73,1.22A10,10,0,0,1,26,14Zm0,4a3,3,0,0,1,.87.12c.18.07.19.13.17.09l.24.48.53.06a1.06,1.06,0,0,1,.89.53,2.51,2.51,0,0,1,.3,1.23,6.84,6.84,0,0,1-.19,1.9l-.3.84.5.25a.21.21,0,0,1,0,.08.73.73,0,0,1-.18.42h-.74l-.08.9A4.47,4.47,0,0,1,27.68,26a3.29,3.29,0,0,1-.22.43l0,0-.42.21V29.2l.08.18a2.74,2.74,0,0,0,1.38,1.37,10.62,10.62,0,0,0,1.65.61,9.68,9.68,0,0,1,1.78.72,10,10,0,0,1-11.78,0,9.68,9.68,0,0,1,1.78-.72,10.62,10.62,0,0,0,1.65-.61,2.74,2.74,0,0,0,1.38-1.37L25,29.2V26.63l-.42-.21,0,0a3.29,3.29,0,0,1-.22-.43A4.47,4.47,0,0,1,24,24.9l-.08-.9h-.79s-.1-.1-.12-.34v-.07a.26.26,0,0,1,0-.09l.44-.22-.22-.79A7.5,7.5,0,0,1,23,20.62a2.46,2.46,0,0,1,.66-1.88A3.15,3.15,0,0,1,26,18ZM7,28a3,3,0,1,1-3,3A3,3,0,0,1,7,28Zm36,7a3,3,0,1,1-3,3A3,3,0,0,1,43,35ZM23,40a3,3,0,1,1-3,3A3,3,0,0,1,23,40Z" transform="translate(-2 -2)"/></svg>
