<svg xmlns="http://www.w3.org/2000/svg" viewBox="0 0 26 25.91" width="24px"><path d="M13.5,4A12.35,12.35,0,0,0,6.19,6.25,7.27,7.27,0,0,0,3,12a7.42,7.42,0,0,0,4,6.45v5.44L12.65,20c.28,0,.56,0,.85,0a12.28,12.28,0,0,0,7.31-2.25A7.24,7.24,0,0,0,24,12a7.27,7.27,0,0,0-3.19-5.77A12.35,12.35,0,0,0,13.5,4Zm0,2a10.44,10.44,0,0,1,6.12,1.86A5.23,5.23,0,0,1,22,12a5.21,5.21,0,0,1-2.38,4.16A10.37,10.37,0,0,1,13.5,18c-.35,0-.7,0-1.05-.05l-.36,0L9,20.09V17.3L8.43,17A5.35,5.35,0,0,1,5,12,5.23,5.23,0,0,1,7.38,7.86,10.44,10.44,0,0,1,13.5,6ZM26,12.4a8.52,8.52,0,0,1-.42,2.27A4.86,4.86,0,0,1,27,18a5.45,5.45,0,0,1-3.43,5L23,23.3v2.79L19.91,24l-.36,0c-.34,0-.69.05-1.05.05a10.49,10.49,0,0,1-5.81-1.64L11,23.6A12.25,12.25,0,0,0,18.5,26q.43,0,.87,0L25,29.91V24.54A7.32,7.32,0,0,0,29,18,7.19,7.19,0,0,0,26,12.4Z" transform="translate(-3 -4)" fill="#fff"/></svg>
