<?xml version="1.0" encoding="UTF-8"?>
<svg width="50px" height="50px" viewBox="0 0 50 50" version="1.1" xmlns="http://www.w3.org/2000/svg" xmlns:xlink="http://www.w3.org/1999/xlink">
    <!-- Generator: Sketch 59.1 (86144) - https://sketch.com -->
    <title>icons8-money-box</title>
    <desc>Created with Sketch.</desc>
    <g id="icons8-money-box" stroke="none" stroke-width="1" fill="none" fill-rule="evenodd">
        <path d="M25,10.062 C25,6.473 22.086,3.562 18.5,3.562 C14.906,3.562 12,6.473 12,10.062 C12,11.07 12.23,12.016 12.641,12.863" id="Stroke-1" stroke="white" stroke-width="2" stroke-linejoin="round"></path>
        <path d="M45.375,24.027 L43.746,24.027 C42.898,24.027 42.496,23.652 42.438,23.266 C41.992,20.477 40.18,16.855 35.629,15.266 C35.582,12.742 36.145,10.922 37.242,7.961 C34.695,8.598 31.883,9.984 30.215,13.66 C28.34,13.199 26.332,12.953 24.238,12.953 C18.754,12.953 14.613,14.617 11.305,17.195 C8.312,19.523 6.434,23.426 6.656,28.742 C6.824,32.758 9.617,35.82 11.762,37.535 C12.07,37.777 12.688,38.168 12.367,39.164 C12.043,40.16 11.465,41.551 11.465,41.551 C11.125,42.438 11.574,43.43 12.461,43.77 L15.676,44.984 C16.562,45.32 17.559,44.875 17.895,43.988 C17.895,43.988 18.324,42.871 18.672,41.941 C19.332,40.195 19.734,41.613 24.238,41.613 C28.914,41.613 29.387,40.699 29.875,42.133 C30.188,43.066 30.578,43.988 30.578,43.988 C30.91,44.875 31.906,45.32 32.797,44.984 L36.012,43.77 C36.898,43.43 37.348,42.438 37.012,41.551 L36.492,40.184 C36.492,40.184 35.969,39.285 37.094,38.676 C39.336,37.453 41.027,35.602 42.121,33.316 C42.355,32.828 42.699,32.16 43.746,32.16 L45.375,32.16 C46.27,32.16 47,31.434 47,30.535 L47,25.656 C47,24.762 46.27,24.027 45.375,24.027 Z" id="Stroke-2" stroke="white" stroke-width="2" stroke-linecap="round" stroke-linejoin="round"></path>
        <path d="M36.48,26.922 C35.422,26.922 34.562,26.066 34.562,25.008 C34.562,23.953 35.422,23.098 36.48,23.098 C37.535,23.098 38.391,23.953 38.391,25.008 C38.391,26.062 37.535,26.922 36.48,26.922 Z" id="Fill-3" fill="white"></path>
        <path d="M6.824,23.098 C6.824,23.098 3,22.219 3,18.77 C3,17.355 3.715,16.051 4.965,15.512" id="Stroke-4" stroke="white" stroke-width="2" stroke-linecap="round" stroke-linejoin="round"></path>
    </g>
</svg>
