<svg id="Calque_1" data-name="Calque 1" xmlns="http://www.w3.org/2000/svg" viewBox="0 0 42 42" width="18px"><path d="M14,4A10,10,0,0,0,4,14V36A10,10,0,0,0,14,46H36A10,10,0,0,0,46,36V14A10,10,0,0,0,36,4Zm4,8a2,2,0,0,1,1.55.93c.39.62,1,1.57,1.81,2.83a3.75,3.75,0,0,1,.13,3.8L20,21.67a2,2,0,0,0-.21,1.93,12.41,12.41,0,0,0,6.58,6.58A2,2,0,0,0,28.33,30l2.08-1.47a3.75,3.75,0,0,1,3.8.13L37,30.44A2,2,0,0,1,38,32c.15,3.57-2.61,5-3.41,5-.56,0-7.24.76-14.78-6.78S13,16,13,15.44C13,14.64,14.44,11.88,18,12Z" transform="translate(-4 -3.99)" style="fill:#fff"/></svg>
