<?xml version="1.0" encoding="UTF-8"?>
<svg width="50px" height="50px" viewBox="0 0 50 50" version="1.1" xmlns="http://www.w3.org/2000/svg" xmlns:xlink="http://www.w3.org/1999/xlink">
    <!-- Generator: Sketch 59.1 (86144) - https://sketch.com -->
    <title>icons8-question-mark</title>
    <desc>Created with Sketch.</desc>
    <g id="icons8-question-mark" stroke="none" stroke-width="1" fill="none" fill-rule="evenodd">
        <path d="M25,2 C25.398,2 25.898,2 26.301,2.102 C31.801,2.699 36.301,7.199 36.898,12.699 C37.398,17.602 35,22.301 30.602,24.699 C27.801,26.102 26,29 26,32.102 L26,38 L24,38 L24,32.102 C24,28.301 26.199,24.699 29.699,22.898 C33.301,21 35.398,17 34.898,12.898 C34.398,8.301 30.699,4.602 26.102,4.102 C25.801,4 25.398,4 25,4 C22.5,4 20.199,4.898 18.301,6.5 C16.199,8.398 15,11.199 15,14 L13,14 C13,10.602 14.5,7.301 17,5.102 C19.199,3.102 22.102,2 25,2 L25,2 Z M25,0 C21.5,0 18.199,1.301 15.602,3.602 C12.699,6.199 11,10 11,14 C11,15.102 11.898,16 13,16 L15,16 C16.102,16 17,15.102 17,14 C17,11.699 18,9.602 19.699,8 C21.199,6.699 23,6 25,6 C25.301,6 25.602,6 25.898,6.102 C29.602,6.5 32.5,9.5 32.898,13.102 C33.301,16.398 31.602,19.5 28.699,21.102 C24.5,23.301 21.898,27.5 21.898,32.102 L21.898,38 C21.898,39.102 22.801,40 23.898,40 L25.898,40 C27,40 27.898,39.102 27.898,38 L27.898,32.102 C27.898,29.801 29.301,27.602 31.5,26.398 C36.602,23.699 39.5,18.199 38.801,12.5 C38.199,6 33,0.801 26.602,0.102 C26.102,0 25.5,0 25,0 Z" id="Fill-1" fill="white"></path>
        <polygon id="Stroke-2" stroke="white" stroke-width="2" stroke-linejoin="round" points="23 49 27 49 27 45 23 45"></polygon>
    </g>
</svg>
