<?xml version="1.0" encoding="utf-8"?>
<!-- Generator: Adobe Illustrator 25.0.0, SVG Export Plug-In . SVG Version: 6.00 Build 0)  -->
<svg version="1.1" id="Calque_1" xmlns="http://www.w3.org/2000/svg" xmlns:xlink="http://www.w3.org/1999/xlink" x="0px" y="0px"
	 viewBox="0 0 50 50" style="enable-background:new 0 0 50 50;" xml:space="preserve" fill="#fe4040" width="23px">
<path class="st0" d="M7,2C6.8,2,6.6,2.1,6.5,2.2C6.2,2.3,6,2.7,6,3v41h38V3c0-0.3-0.2-0.7-0.5-0.8s-0.7-0.2-1-0.1L41,2.9l-1.6-0.8
	c-0.3-0.1-0.6-0.1-0.9,0L37,2.9l-1.6-0.8c-0.3-0.1-0.6-0.1-0.9,0L33,2.9l-1.6-0.8c-0.3-0.1-0.6-0.1-0.9,0L29,2.9l-1.6-0.8
	c-0.3-0.1-0.6-0.1-0.9,0L25,2.9l-1.6-0.8c-0.3-0.1-0.6-0.1-0.9,0L21,2.9l-1.6-0.8c-0.3-0.1-0.6-0.1-0.9,0L17,2.9l-1.6-0.8
	c-0.3-0.1-0.6-0.1-0.9,0L13,2.9l-1.6-0.8c-0.3-0.1-0.6-0.1-0.9,0L9,2.9L7.4,2.1C7.3,2,7.1,2,7,2z M44,44v2H6v-2H5c-1.1,0-2,0.9-2,2
	s0.9,2,2,2h40c1.1,0,2-0.9,2-2s-0.9-2-2-2H44z M13,11h15c0.6,0,1,0.4,1,1s-0.4,1-1,1H13c-0.6,0-1-0.4-1-1S12.4,11,13,11z M34,11h3
	c0.6,0,1,0.4,1,1s-0.4,1-1,1h-3c-0.6,0-1-0.4-1-1S33.4,11,34,11z M13,17h11c0.6,0,1,0.4,1,1s-0.4,1-1,1H13c-0.6,0-1-0.4-1-1
	S12.4,17,13,17z M34,17h3c0.6,0,1,0.4,1,1s-0.4,1-1,1h-3c-0.6,0-1-0.4-1-1S33.4,17,34,17z M13,23h15c0.6,0,1,0.4,1,1s-0.4,1-1,1H13
	c-0.6,0-1-0.4-1-1S12.4,23,13,23z M34,23h3c0.6,0,1,0.4,1,1s-0.4,1-1,1h-3c-0.6,0-1-0.4-1-1S33.4,23,34,23z M13,29h11
	c0.6,0,1,0.4,1,1s-0.4,1-1,1H13c-0.6,0-1-0.4-1-1S12.4,29,13,29z M34,29h3c0.6,0,1,0.4,1,1s-0.4,1-1,1h-3c-0.6,0-1-0.4-1-1
	S33.4,29,34,29z M13,35c0.6,0,1,0.4,1,1s-0.4,1-1,1s-1-0.4-1-1S12.4,35,13,35z M16,35c0.6,0,1,0.4,1,1s-0.4,1-1,1s-1-0.4-1-1
	S15.4,35,16,35z M19,35c0.6,0,1,0.4,1,1s-0.4,1-1,1s-1-0.4-1-1S18.4,35,19,35z M22,35c0.6,0,1,0.4,1,1s-0.4,1-1,1s-1-0.4-1-1
	S21.4,35,22,35z M25,35c0.6,0,1,0.4,1,1s-0.4,1-1,1s-1-0.4-1-1S24.4,35,25,35z M28,35c0.6,0,1,0.4,1,1s-0.4,1-1,1s-1-0.4-1-1
	S27.4,35,28,35z M31,35c0.6,0,1,0.4,1,1s-0.4,1-1,1s-1-0.4-1-1S30.4,35,31,35z M34,35c0.6,0,1,0.4,1,1s-0.4,1-1,1s-1-0.4-1-1
	S33.4,35,34,35z M37,35c0.6,0,1,0.4,1,1s-0.4,1-1,1s-1-0.4-1-1S36.4,35,37,35z M31,40h6c0.6,0,1,0.4,1,1s-0.4,1-1,1h-6
	c-0.6,0-1-0.4-1-1S30.4,40,31,40z"/>
</svg>
