<svg width="19px" fill="#000000" xmlns="http://www.w3.org/2000/svg" viewBox="0 0 40 44"><path d="M26,3c-3.44,0-5.78,1.06-6.95,3s-1.06,4-.62,6.32A2.27,2.27,0,0,0,18,13.91a3.58,3.58,0,0,0,.65,1.84c.13.17.32.16.48.28A5.7,5.7,0,0,0,20,18.28a9.39,9.39,0,0,0,.75,1c.08.07.16.12.23.19v1.82a2.13,2.13,0,0,1-1.11,1c-.67.35-1.6.68-2.57,1.11a8.54,8.54,0,0,0-2.81,1.86A5.81,5.81,0,0,0,13,28.94,1,1,0,0,0,14,30H36a1,1,0,0,0,1-1.06,5.81,5.81,0,0,0-1.51-3.71,8.54,8.54,0,0,0-2.81-1.86c-1-.43-1.9-.76-2.57-1.12a2.12,2.12,0,0,1-1.11-1V19.44a1.86,1.86,0,0,0,.22-.19A7.17,7.17,0,0,0,30,18.3a5.42,5.42,0,0,0,.91-2.18c.16-.12.36-.12.49-.29A3.54,3.54,0,0,0,32,14a2.62,2.62,0,0,0-.17-1.38c0-.1-.18-.14-.24-.23a8.33,8.33,0,0,0,0-5.18,5.05,5.05,0,0,0-4.36-3.12l-.36-.6A1,1,0,0,0,26,3Zm-.52,2.08.25.43a1,1,0,0,0,.86.49c1.88,0,2.66.75,3.12,1.94a6.9,6.9,0,0,1-.08,4.37,1,1,0,0,0,.4,1.15.69.69,0,0,1,0,.3h0a2,2,0,0,1-.25.85,1,1,0,0,0-.8,1,3.67,3.67,0,0,1-.66,1.59,5.85,5.85,0,0,1-.57.71c-.17.18-.38.31-.24.24A1,1,0,0,0,27,19v2.55a.93.93,0,0,0,.06.34A4.07,4.07,0,0,0,29.18,24c.87.45,1.82.78,2.68,1.16A6.74,6.74,0,0,1,34,26.6a3.48,3.48,0,0,1,.75,1.4H15.22A3.48,3.48,0,0,1,16,26.6a6.56,6.56,0,0,1,2.17-1.4C19,24.81,20,24.48,20.82,24a4.1,4.1,0,0,0,2.12-2.14,1,1,0,0,0,.06-.34V19a1,1,0,0,0-.53-.88c.14.07-.06-.05-.22-.23a5.33,5.33,0,0,1-.56-.72A3.69,3.69,0,0,1,21,15.5a1,1,0,0,0-.8-1,1.73,1.73,0,0,1-.25-.84.49.49,0,0,1,.05-.32,1,1,0,0,0,.4-1c-.5-2.27-.42-4.14.31-5.33S22.87,5.19,25.48,5.08ZM13.5,32,9.26,36.34A2.52,2.52,0,0,0,8,36a3,3,0,0,0,0,6,2.89,2.89,0,0,0,2.7-2.27,1,1,0,0,0,0-1.46c0-.15-.1-.3-.16-.44a.82.82,0,0,0,.26-.23L16,32ZM24,32v9.19a3,3,0,1,0,2,0V32Zm10,0,5.2,5.6a.82.82,0,0,0,.26.23c-.06.14-.11.29-.16.44a1,1,0,0,0,0,1.46A2.89,2.89,0,0,0,42,42a3,3,0,0,0,0-6,2.52,2.52,0,0,0-1.26.34L36.5,32ZM8,38a1,1,0,1,1-1,1A1,1,0,0,1,8,38Zm34,0a1,1,0,1,1-1,1A1,1,0,0,1,42,38ZM25,43a1,1,0,1,1-1,1A1,1,0,0,1,25,43Z" transform="translate(-5 -3)"/></svg>
