<svg xmlns="http://www.w3.org/2000/svg" viewBox="0 0 26 26"><path d="M27.41,6.59l-4-4a2,2,0,0,0-2.82,0l-.8.79,1.92,1.91a1,1,0,0,1,0,1.42,1,1,0,0,1-1.42,0L18.38,4.79,16.79,6.38l.92.91a1,1,0,0,1,0,1.42,1,1,0,0,1-1.42,0l-.91-.92L13.79,9.38l1.92,1.91a1,1,0,0,1,0,1.42,1,1,0,0,1-1.42,0l-1.91-1.92-1.59,1.59.92.91a1,1,0,0,1,0,1.42,1,1,0,0,1-1.42,0l-.91-.92L7.79,15.38l1.92,1.91a1,1,0,0,1,0,1.42,1,1,0,0,1-1.42,0L6.38,16.79,4.79,18.38l.92.91a1,1,0,0,1,0,1.42,1,1,0,0,1-1.42,0l-.91-.92-.79.8a2,2,0,0,0,0,2.82l4,4a2,2,0,0,0,2.82,0c.4-.39,17.61-17.6,18-18A2,2,0,0,0,27.41,6.59Z" transform="translate(-2 -2)" fill="#fff"/></svg>