<svg xmlns="http://www.w3.org/2000/svg" viewBox="0 0 30 25.01"><path d="M15,2a1,1,0,0,0-1,1V5a1,1,0,0,0,2,0V3a1,1,0,0,0-1-1ZM8.58,4a1,1,0,0,0-1,1,1,1,0,0,0,.3.72L9.29,7.12a1,1,0,0,0,1.42,0,1,1,0,0,0,0-1.41l0,0L9.29,4.29A1,1,0,0,0,8.58,4ZM22,4a1,1,0,0,0-.69.3L19.88,5.71a1,1,0,1,0,1.38,1.44l0,0,1.42-1.41A1,1,0,0,0,22,4ZM2,11a1,1,0,0,0-1,1v3H0v2H1v3a1,1,0,0,0,1,1H5a1,1,0,0,0,1-1V18H7V14H6V12a1,1,0,0,0-1-1Zm9,0a2,2,0,0,0-2,2H9v7H8L9.15,22A3,3,0,0,0,11,23.83V27h8V23.82A3,3,0,0,0,21,21h0V13.5h0a1.5,1.5,0,0,0-2.65-1,1.76,1.76,0,0,0-1.6-1,1.78,1.78,0,0,0-1.09.38,2,2,0,0,0-3.16-.2A2,2,0,0,0,11,11Zm14,0a1,1,0,0,0-1,1v2H23v4h1v2a1,1,0,0,0,1,1h3a1,1,0,0,0,1-1V17h1V15H29V12a1,1,0,0,0-1-1Z" transform="translate(0 -1.99)" fill="#fff"/></svg>